<svg width="40" height="41" viewBox="0 0 40 41" fill="none" xmlns="http://www.w3.org/2000/svg">
<ellipse cx="20" cy="20.5" rx="20" ry="20.5" fill="#F7F8F8"/>
<g clip-path="url(#clip0_430_615)">
<path fill-rule="evenodd" clip-rule="evenodd" d="M32 24.9025C32 27.1653 26.6303 28.9998 20.0006 28.9998C13.3709 28.9998 8 27.1653 8 24.9025C8 22.6397 13.3697 20.8052 20.0006 20.8052C26.6316 20.8052 32 22.6397 32 24.9025Z" fill="#E2CAB3"/>
<path fill-rule="evenodd" clip-rule="evenodd" d="M32 24.4508C32 26.7136 26.6303 28.5482 20.0006 28.5482C13.3709 28.5482 8 26.7136 8 24.4508C8 22.1881 13.3697 20.3535 20.0006 20.3535C26.6316 20.3535 32 22.1881 32 24.4508Z" fill="white"/>
<path fill-rule="evenodd" clip-rule="evenodd" d="M32 24.386C32 26.578 26.6303 28.3547 20.0006 28.3547C13.3709 28.3547 8 26.578 8 24.386C8 22.194 13.3697 20.4185 20.0006 20.4185C26.6316 20.4185 32 22.1952 32 24.386Z" fill="#E7D8C8"/>
<path fill-rule="evenodd" clip-rule="evenodd" d="M31.4681 24.3861C31.4681 25.9505 26.8727 27.2176 21.2045 27.2176C15.5364 27.2176 10.9397 25.9505 10.9397 24.3861C10.9397 22.8218 15.5351 21.5547 21.2045 21.5547C26.8739 21.5547 31.4681 22.8229 31.4681 24.3861Z" fill="#E2CAB3"/>
<path d="M30.6027 24.4872C30.3841 23.5198 29.3202 23.1104 28.4798 23.0455C27.9615 23.0066 27.4433 23.1104 26.9263 23.1375C26.639 23.1531 26.3509 23.142 26.0659 23.1045C25.7512 23.0632 25.4503 22.9558 25.1331 22.9311C24.5824 22.8886 24.0367 23.0691 23.5234 23.2579C22.9203 23.4808 22.3171 23.6838 21.699 23.856C20.4797 24.2069 19.2235 24.4313 17.9527 24.5249C17.4358 24.5694 16.9156 24.5666 16.3992 24.5167C16.0371 24.4742 15.6799 24.3987 15.3178 24.3586C14.6834 24.2913 13.9804 24.3704 13.7244 25.0747C13.5324 25.0741 13.3432 25.117 13.1724 25.1998C12.9139 25.3048 12.568 25.4912 12.4344 25.7613C12.1559 26.3264 13.0588 26.5482 13.3934 26.6084C13.7119 26.665 14.0328 26.6851 14.3525 26.7169C14.7971 26.7618 15.1542 26.9612 15.5301 27.2042C16.4779 27.8165 17.7429 27.8566 18.8218 27.7858C19.417 27.7436 20.0053 27.6396 20.5763 27.4755C21.1795 27.3056 21.8001 27.4083 22.4095 27.5062C22.933 27.6107 23.4766 27.5797 23.983 27.4165C24.4925 27.2455 24.9345 26.9328 25.3703 26.619C25.8786 26.2533 26.4568 26.2309 27.0549 26.1849C27.6446 26.1503 28.2297 26.0654 28.8032 25.9312C29.2846 25.8163 29.7534 25.6582 30.2031 25.4593C30.5852 25.2694 30.6926 24.9154 30.6027 24.4872Z" fill="#EEBE30"/>
<path d="M27.1959 23.646C27.1959 25.1702 23.7705 26.5871 19.6459 26.5871C15.5212 26.5871 12.0684 25.0652 12.0684 23.541C12.0684 22.0167 15.5212 21.0635 19.6459 21.0635C23.7705 21.0635 27.1959 22.1217 27.1959 23.646Z" fill="#E3AC8A"/>
<path d="M27.1135 23.3525C27.1135 24.8767 23.7705 26.1119 19.6459 26.1119C15.5212 26.1119 12.177 24.8767 12.177 23.3525C12.177 21.8282 15.5212 20.5918 19.6459 20.5918C23.7705 20.5918 27.1135 21.8282 27.1135 23.3525Z" fill="#DA840D"/>
<path d="M25.0782 23.0904C25.0782 24.2217 22.5981 25.1372 19.5374 25.1372C16.4767 25.1372 13.9941 24.2217 13.9941 23.0904C13.9941 21.959 16.4779 21.0435 19.5374 21.0435C22.5969 21.0435 25.0782 21.966 25.0782 23.0904Z" fill="#F0A508"/>
<path d="M15.8084 23.8456C15.8084 23.9636 15.6673 24.0662 15.4924 24.0662C15.3176 24.0662 15.1777 23.9671 15.1777 23.8456C15.1777 23.7241 15.3188 23.625 15.4924 23.625C15.666 23.625 15.8084 23.7241 15.8084 23.8456Z" fill="#DA840D"/>
<path d="M15.1779 22.9173C15.1761 22.9498 15.1644 22.9811 15.144 23.0073C15.1237 23.0336 15.0956 23.0536 15.0633 23.065C15.031 23.0763 14.9959 23.0784 14.9624 23.0711C14.9288 23.0638 14.8983 23.0473 14.8745 23.0238C14.8508 23.0002 14.8348 22.9706 14.8287 22.9386C14.8226 22.9065 14.8266 22.8735 14.8401 22.8436C14.8537 22.8137 14.8762 22.7882 14.9049 22.7702C14.9337 22.7523 14.9673 22.7427 15.0018 22.7427C15.0255 22.7431 15.0489 22.748 15.0706 22.7571C15.0923 22.7661 15.1119 22.7791 15.1283 22.7953C15.1447 22.8116 15.1575 22.8307 15.166 22.8516C15.1745 22.8726 15.1785 22.8949 15.1779 22.9173Z" fill="#DA840D"/>
<path d="M17.3658 24.1132C17.3698 24.1705 17.3554 24.2277 17.3246 24.2773C17.2938 24.3268 17.2479 24.3665 17.193 24.3911C17.138 24.4157 17.0764 24.4242 17.0163 24.4153C16.9562 24.4065 16.9003 24.3808 16.8558 24.3416C16.8114 24.3023 16.7804 24.2514 16.767 24.1953C16.7536 24.1392 16.7583 24.0807 16.7806 24.0272C16.8028 23.9737 16.8416 23.9277 16.8918 23.8953C16.9421 23.8629 17.0015 23.8455 17.0623 23.8454C17.1009 23.8441 17.1393 23.85 17.1754 23.8628C17.2115 23.8756 17.2446 23.895 17.2728 23.9199C17.301 23.9447 17.3237 23.9746 17.3396 24.0078C17.3556 24.041 17.3645 24.0768 17.3658 24.1132Z" fill="#DA840D"/>
<path d="M16.7064 23.0503C16.7064 23.1235 16.6202 23.1836 16.5153 23.1836C16.4104 23.1836 16.323 23.1235 16.323 23.0503C16.323 22.9772 16.4092 22.917 16.5153 22.917C16.6215 22.917 16.7064 22.976 16.7064 23.0503Z" fill="#DA840D"/>
<path d="M18.6371 23.683C18.6416 23.7201 18.6342 23.7576 18.6157 23.7905C18.5972 23.8235 18.5685 23.8504 18.5335 23.8676C18.4984 23.8848 18.4587 23.8915 18.4195 23.8869C18.3803 23.8823 18.3435 23.8665 18.314 23.8417C18.2846 23.8169 18.2637 23.7842 18.2544 23.748C18.245 23.7118 18.2475 23.6737 18.2615 23.6388C18.2756 23.604 18.3005 23.5739 18.333 23.5528C18.3655 23.5316 18.404 23.5202 18.4435 23.5202C18.4919 23.518 18.5394 23.5338 18.5756 23.5642C18.6118 23.5947 18.6339 23.6373 18.6371 23.683Z" fill="#DA840D"/>
<path d="M18.7105 24.6657C18.7105 24.7412 18.6181 24.8025 18.5032 24.8025C18.3883 24.8025 18.2959 24.7412 18.2959 24.6657C18.2959 24.5902 18.3896 24.5288 18.5032 24.5288C18.6168 24.5288 18.7105 24.5902 18.7105 24.6657Z" fill="#DA840D"/>
<path d="M17.8842 23.2014C17.882 23.2288 17.8713 23.255 17.8534 23.2767C17.8356 23.2984 17.8114 23.3147 17.7839 23.3236C17.7563 23.3324 17.7266 23.3335 17.6985 23.3265C17.6703 23.3196 17.6449 23.305 17.6255 23.2845C17.606 23.2641 17.5933 23.2387 17.589 23.2115C17.5847 23.1843 17.589 23.1565 17.6012 23.1315C17.6135 23.1066 17.6332 23.0856 17.658 23.0712C17.6828 23.0568 17.7115 23.0495 17.7406 23.0504C17.7805 23.0531 17.8178 23.0703 17.8446 23.0985C17.8714 23.1267 17.8856 23.1635 17.8842 23.2014Z" fill="#DA840D"/>
<path d="M20.0344 23.4882C20.0344 23.5637 19.9445 23.6251 19.8334 23.6251C19.7222 23.6251 19.6323 23.5637 19.6323 23.4882C19.6323 23.4127 19.7222 23.3525 19.8334 23.3525C19.9445 23.3525 20.0344 23.4127 20.0344 23.4882Z" fill="#DA840D"/>
<path d="M20.0344 24.1947C20.0344 24.2395 19.9445 24.2761 19.8334 24.2761C19.7222 24.2761 19.6323 24.2395 19.6323 24.1947C19.6323 24.1499 19.7222 24.1133 19.8334 24.1133C19.9445 24.1133 20.0344 24.1499 20.0344 24.1947Z" fill="#DA840D"/>
<path d="M21.3942 23.7359C21.3942 23.7961 21.313 23.8456 21.2118 23.8456C21.1107 23.8456 21.0308 23.7961 21.0308 23.7359C21.0308 23.6757 21.1119 23.625 21.2118 23.625C21.3117 23.625 21.3942 23.6746 21.3942 23.7359Z" fill="#DA840D"/>
<path d="M21.177 24.5243C21.1856 24.5611 21.1818 24.5994 21.1663 24.6341C21.1508 24.6687 21.1242 24.698 21.0904 24.7178C21.0565 24.7376 21.0169 24.7469 20.9772 24.7446C20.9374 24.7422 20.8994 24.7283 20.8684 24.7047C20.8374 24.6811 20.815 24.6489 20.8041 24.6127C20.7933 24.5765 20.7946 24.538 20.8079 24.5025C20.8212 24.4671 20.8459 24.4364 20.8784 24.4147C20.911 24.3931 20.9499 24.3815 20.9897 24.3816C21.0345 24.3776 21.0791 24.3903 21.1141 24.4169C21.1491 24.4436 21.1717 24.4822 21.177 24.5243Z" fill="#DA840D"/>
<path d="M22.6905 24.2953C22.6828 24.3304 22.6646 24.3628 22.6381 24.3886C22.6116 24.4144 22.5779 24.4326 22.541 24.441C22.504 24.4494 22.4653 24.4478 22.4292 24.4362C22.3932 24.4247 22.3614 24.4038 22.3375 24.3758C22.3136 24.3479 22.2985 24.3141 22.2941 24.2785C22.2897 24.2428 22.296 24.2066 22.3125 24.1742C22.3289 24.1418 22.3547 24.1145 22.387 24.0954C22.4192 24.0763 22.4565 24.0663 22.4945 24.0664C22.5524 24.0726 22.6054 24.1001 22.6421 24.1429C22.6788 24.1858 22.6962 24.2405 22.6905 24.2953Z" fill="#DA840D"/>
<path d="M22.5818 23.2639C22.5818 23.3111 22.5181 23.3489 22.4394 23.3489C22.3608 23.3489 22.2983 23.3111 22.2983 23.2639C22.2983 23.2167 22.362 23.1802 22.4394 23.1802C22.5169 23.1802 22.5818 23.2215 22.5818 23.2639Z" fill="#DA840D"/>
<path d="M23.7808 23.5151C23.7808 23.698 23.6947 23.8454 23.5898 23.8454C23.4849 23.8454 23.3975 23.698 23.3975 23.5151C23.3975 23.3322 23.4836 23.1836 23.5898 23.1836C23.6959 23.1836 23.7808 23.3322 23.7808 23.5151Z" fill="#DA840D"/>
<path d="M24.2613 23.1788C24.2613 23.2023 24.2514 23.2248 24.2339 23.2414C24.2163 23.258 24.1925 23.2673 24.1676 23.2673C24.1428 23.2673 24.119 23.258 24.1014 23.2414C24.0838 23.2248 24.074 23.2023 24.074 23.1788C24.074 23.1553 24.0838 23.1328 24.1014 23.1162C24.119 23.0997 24.1428 23.0903 24.1676 23.0903C24.1924 23.0906 24.216 23.1001 24.2335 23.1166C24.251 23.1331 24.261 23.1554 24.2613 23.1788Z" fill="#DA840D"/>
<path d="M21.1121 22.8972C21.1121 22.981 20.9947 23.0506 20.8511 23.0506C20.7075 23.0506 20.5901 22.981 20.5901 22.8972C20.5901 22.8135 20.7062 22.7427 20.8511 22.7427C20.9959 22.7427 21.1121 22.8123 21.1121 22.8972Z" fill="#DA840D"/>
<path d="M16.2157 22.1017C16.2157 22.1536 16.1245 22.1961 16.0121 22.1961C15.8998 22.1961 15.8086 22.1536 15.8086 22.1017C15.8086 22.0498 15.8998 22.0073 16.0121 22.0073C16.1245 22.0073 16.2157 22.0498 16.2157 22.1017Z" fill="#DA840D"/>
<path d="M17.4145 21.9118C17.4145 21.9649 17.3108 22.0073 17.1834 22.0073C17.0561 22.0073 16.9512 21.9649 16.9512 21.9118C16.9512 21.8587 17.0548 21.8174 17.1834 21.8174C17.3121 21.8174 17.4145 21.8599 17.4145 21.9118Z" fill="#DA840D"/>
<path d="M18.9228 22.1442C18.9228 22.2185 18.7829 22.2799 18.6093 22.2799C18.4358 22.2799 18.2959 22.2185 18.2959 22.1442C18.2959 22.0699 18.437 22.0073 18.6093 22.0073C18.7817 22.0073 18.9228 22.0687 18.9228 22.1442Z" fill="#DA840D"/>
<path d="M20.0343 21.9118C20.0346 21.9308 20.0288 21.9494 20.0178 21.9653C20.0068 21.9812 19.991 21.9936 19.9725 22.001C19.9539 22.0084 19.9335 22.0104 19.9138 22.0067C19.894 22.0031 19.8759 21.994 19.8617 21.9805C19.8474 21.9671 19.8378 21.9499 19.8339 21.9313C19.8301 21.9127 19.8322 21.8933 19.84 21.8758C19.8478 21.8583 19.8609 21.8434 19.8778 21.833C19.8946 21.8226 19.9143 21.8172 19.9344 21.8174C19.9609 21.8174 19.9863 21.8273 20.0051 21.845C20.0238 21.8627 20.0343 21.8867 20.0343 21.9118Z" fill="#DA840D"/>
<path d="M19.8333 22.6585C19.8333 22.7045 19.7384 22.7422 19.6198 22.7422C19.5011 22.7422 19.4075 22.7045 19.4075 22.6585C19.4075 22.6125 19.5024 22.5747 19.6198 22.5747C19.7371 22.5747 19.8333 22.6125 19.8333 22.6585Z" fill="#DA840D"/>
<path d="M21.5029 21.8705C21.5024 21.8978 21.4932 21.9245 21.4767 21.947C21.4601 21.9694 21.4368 21.9867 21.4098 21.9967C21.3827 22.0066 21.3532 22.0087 21.3249 22.0027C21.2966 21.9967 21.2708 21.9829 21.2509 21.9631C21.2309 21.9432 21.2176 21.9182 21.2128 21.8912C21.2079 21.8641 21.2117 21.8364 21.2235 21.8114C21.2354 21.7864 21.2549 21.7653 21.2796 21.7508C21.3042 21.7364 21.3328 21.7291 21.3618 21.7301C21.3808 21.7305 21.3995 21.7345 21.4169 21.7418C21.4343 21.7491 21.45 21.7596 21.4631 21.7726C21.4762 21.7857 21.4865 21.801 21.4933 21.8178C21.5001 21.8346 21.5034 21.8525 21.5029 21.8705Z" fill="#DA840D"/>
<path d="M22.2982 22.4277C22.2982 22.4513 22.2245 22.4702 22.1321 22.4702C22.0397 22.4702 21.9673 22.4513 21.9673 22.4277C21.9673 22.4041 22.041 22.3853 22.1321 22.3853C22.2233 22.3853 22.2982 22.4041 22.2982 22.4277Z" fill="#DA840D"/>
<path d="M22.8166 22.149C22.8197 22.1614 22.8187 22.1745 22.8136 22.1863C22.8085 22.1981 22.7996 22.2082 22.7881 22.215C22.7767 22.2218 22.7633 22.2251 22.7498 22.2244C22.7363 22.2237 22.7234 22.219 22.7128 22.2111C22.7023 22.2031 22.6946 22.1922 22.6909 22.1799C22.6873 22.1676 22.6877 22.1545 22.6923 22.1425C22.6968 22.1305 22.7052 22.1201 22.7163 22.1128C22.7274 22.1055 22.7406 22.1017 22.7542 22.1018C22.769 22.1005 22.7838 22.1046 22.7955 22.1135C22.8071 22.1223 22.8147 22.135 22.8166 22.149Z" fill="#DA840D"/>
<path d="M22.2983 22.4273C22.2954 22.4528 22.2847 22.4771 22.2676 22.4971C22.2504 22.5171 22.2275 22.5319 22.2016 22.5399C22.1757 22.5478 22.1479 22.5485 22.1216 22.5419C22.0953 22.5353 22.0715 22.5216 22.0533 22.5025C22.035 22.4834 22.023 22.4597 22.0186 22.4343C22.0143 22.4089 22.0178 22.3829 22.0288 22.3593C22.0398 22.3358 22.0578 22.3158 22.0805 22.3016C22.1033 22.2875 22.1299 22.2799 22.1572 22.2798C22.1767 22.2807 22.1958 22.2852 22.2135 22.2931C22.2312 22.301 22.247 22.3122 22.2601 22.3259C22.2732 22.3396 22.2833 22.3556 22.2899 22.373C22.2964 22.3904 22.2993 22.4088 22.2983 22.4273Z" fill="#DA840D"/>
<path d="M23.1001 22.1912C23.1001 22.2396 23.0226 22.2797 22.9265 22.2797C22.8303 22.2797 22.7542 22.2396 22.7542 22.1912C22.7542 22.1429 22.8316 22.1016 22.9265 22.1016C23.0214 22.1016 23.1001 22.1417 23.1001 22.1912Z" fill="#DA840D"/>
<path d="M27.1959 22.5137C27.1959 24.0367 23.7705 25.4548 19.6459 25.4548C15.5212 25.4548 12.0684 23.9317 12.0684 22.4087C12.0684 20.8856 15.5212 19.9312 19.6459 19.9312C23.7705 19.9312 27.1959 20.9894 27.1959 22.5137Z" fill="#E3AC8A"/>
<path d="M27.1135 22.2189C27.1135 23.7432 23.7705 24.9784 19.6459 24.9784C15.5212 24.9784 12.177 23.7432 12.177 22.2189C12.177 20.6947 15.5212 19.4595 19.6459 19.4595C23.7705 19.4595 27.1135 20.6947 27.1135 22.2189Z" fill="#DA840D"/>
<path d="M19.5373 24.0049C22.5974 24.0049 25.0781 23.0885 25.0781 21.958C25.0781 20.8276 22.5974 19.9111 19.5373 19.9111C16.4773 19.9111 13.9966 20.8276 13.9966 21.958C13.9966 23.0885 16.4773 24.0049 19.5373 24.0049Z" fill="#F0A508"/>
<path d="M15.8084 22.7133C15.8084 22.8313 15.6673 22.9339 15.4924 22.9339C15.3176 22.9339 15.1777 22.8348 15.1777 22.7133C15.1777 22.5918 15.3188 22.4927 15.4924 22.4927C15.666 22.4927 15.8084 22.5906 15.8084 22.7133Z" fill="#DA840D"/>
<path d="M15.178 21.7834C15.177 21.8161 15.1659 21.8477 15.1459 21.8745C15.126 21.9012 15.0982 21.9218 15.0659 21.9337C15.0337 21.9455 14.9984 21.9482 14.9646 21.9412C14.9308 21.9343 14.8999 21.9181 14.8758 21.8946C14.8516 21.8712 14.8354 21.8415 14.829 21.8094C14.8226 21.7773 14.8263 21.7441 14.8398 21.714C14.8533 21.6838 14.8758 21.6581 14.9046 21.64C14.9335 21.622 14.9673 21.6123 15.0019 21.6123C15.0492 21.6132 15.0942 21.6317 15.1271 21.6637C15.1601 21.6957 15.1783 21.7387 15.178 21.7834Z" fill="#DA840D"/>
<path d="M17.3658 22.9808C17.3698 23.0382 17.3554 23.0953 17.3246 23.1449C17.2938 23.1945 17.2479 23.2341 17.193 23.2588C17.138 23.2834 17.0764 23.2918 17.0163 23.283C16.9562 23.2741 16.9003 23.2484 16.8558 23.2092C16.8114 23.17 16.7804 23.119 16.767 23.0629C16.7536 23.0069 16.7583 22.9483 16.7806 22.8948C16.8028 22.8413 16.8416 22.7954 16.8918 22.763C16.9421 22.7305 17.0015 22.7131 17.0623 22.713C17.1401 22.7108 17.2156 22.7377 17.2724 22.7879C17.3293 22.838 17.3628 22.9074 17.3658 22.9808Z" fill="#DA840D"/>
<path d="M16.7064 21.9177C16.7064 21.9908 16.6202 22.051 16.5153 22.051C16.4104 22.051 16.323 21.9908 16.323 21.9177C16.323 21.8446 16.4092 21.7832 16.5153 21.7832C16.6215 21.7832 16.7064 21.8481 16.7064 21.9177Z" fill="#DA840D"/>
<path d="M18.6371 22.5561C18.6416 22.5931 18.6342 22.6306 18.6157 22.6636C18.5972 22.6965 18.5685 22.7234 18.5335 22.7406C18.4984 22.7578 18.4587 22.7646 18.4195 22.76C18.3803 22.7553 18.3435 22.7396 18.314 22.7148C18.2846 22.69 18.2637 22.6573 18.2544 22.6211C18.245 22.5848 18.2475 22.5467 18.2615 22.5119C18.2756 22.477 18.3005 22.447 18.333 22.4258C18.3655 22.4046 18.404 22.3933 18.4435 22.3933C18.4919 22.391 18.5394 22.4068 18.5756 22.4373C18.6118 22.4677 18.6339 22.5104 18.6371 22.5561Z" fill="#DA840D"/>
<path d="M18.7105 23.5317C18.7105 23.6072 18.6181 23.6685 18.5032 23.6685C18.3883 23.6685 18.2959 23.6072 18.2959 23.5317C18.2959 23.4562 18.3896 23.396 18.5032 23.396C18.6168 23.396 18.7105 23.4562 18.7105 23.5317Z" fill="#DA840D"/>
<path d="M17.8838 22.0674C17.8818 22.0949 17.8713 22.1212 17.8536 22.1431C17.8359 22.165 17.8118 22.1815 17.7842 22.1905C17.7567 22.1995 17.7269 22.2007 17.6987 22.1939C17.6704 22.1871 17.6449 22.1725 17.6254 22.1521C17.6058 22.1317 17.593 22.1063 17.5886 22.079C17.5842 22.0518 17.5884 22.024 17.6006 21.9989C17.6129 21.9739 17.6326 21.9529 17.6574 21.9384C17.6823 21.9239 17.711 21.9167 17.7402 21.9175C17.78 21.92 17.8173 21.937 17.8441 21.965C17.8709 21.9929 17.8852 22.0297 17.8838 22.0674Z" fill="#DA840D"/>
<path d="M20.0344 22.3556C20.0344 22.4311 19.9445 22.4925 19.8334 22.4925C19.7222 22.4925 19.6323 22.4311 19.6323 22.3556C19.6323 22.2801 19.7222 22.2188 19.8334 22.2188C19.9445 22.2188 20.0344 22.2801 20.0344 22.3556Z" fill="#DA840D"/>
<path d="M20.0344 23.0624C20.0344 23.1072 19.9445 23.1438 19.8334 23.1438C19.7222 23.1438 19.6323 23.1072 19.6323 23.0624C19.6323 23.0175 19.7222 22.981 19.8334 22.981C19.9445 22.981 20.0344 23.0175 20.0344 23.0624Z" fill="#DA840D"/>
<path d="M21.3942 22.6024C21.3942 22.6637 21.313 22.7133 21.2118 22.7133C21.1107 22.7133 21.0308 22.6637 21.0308 22.6024C21.0308 22.541 21.1119 22.4927 21.2118 22.4927C21.3117 22.4927 21.3942 22.5422 21.3942 22.6024Z" fill="#DA840D"/>
<path d="M21.177 23.39C21.1858 23.4267 21.1823 23.4651 21.167 23.4999C21.1517 23.5347 21.1253 23.5641 21.0915 23.5841C21.0577 23.6041 21.0181 23.6136 20.9783 23.6115C20.9385 23.6093 20.9004 23.5955 20.8693 23.572C20.8382 23.5484 20.8155 23.5163 20.8046 23.4801C20.7936 23.4439 20.7948 23.4054 20.808 23.3698C20.8212 23.3343 20.8458 23.3035 20.8784 23.2818C20.9109 23.26 20.9498 23.2484 20.9897 23.2484C21.0343 23.2441 21.079 23.2565 21.114 23.283C21.149 23.3095 21.1717 23.3479 21.177 23.39Z" fill="#DA840D"/>
<path d="M22.6905 23.1613C22.6827 23.1962 22.6646 23.2282 22.6384 23.2538C22.6121 23.2794 22.5787 23.2974 22.542 23.3058C22.5053 23.3142 22.4669 23.3126 22.4311 23.3012C22.3954 23.2898 22.3638 23.2691 22.34 23.2415C22.3162 23.2138 22.3011 23.1804 22.2966 23.145C22.2921 23.1096 22.2983 23.0737 22.3144 23.0415C22.3306 23.0093 22.3561 22.9821 22.3879 22.963C22.4198 22.9439 22.4567 22.9337 22.4944 22.9336C22.5521 22.9398 22.6049 22.9672 22.6416 23.0097C22.6782 23.0523 22.6958 23.1067 22.6905 23.1613Z" fill="#DA840D"/>
<path d="M22.5818 22.135C22.5818 22.181 22.5181 22.2188 22.4394 22.2188C22.3608 22.2188 22.2983 22.181 22.2983 22.135C22.2983 22.089 22.362 22.0513 22.4394 22.0513C22.5169 22.0513 22.5818 22.0843 22.5818 22.135Z" fill="#DA840D"/>
<path d="M23.7808 22.3816C23.7808 22.5645 23.6947 22.7131 23.5898 22.7131C23.4849 22.7131 23.3975 22.5645 23.3975 22.3816C23.3975 22.1987 23.4836 22.0513 23.5898 22.0513C23.6959 22.0513 23.7808 22.2023 23.7808 22.3816Z" fill="#DA840D"/>
<path d="M24.2613 22.046C24.261 22.0694 24.251 22.0917 24.2335 22.1082C24.216 22.1248 24.1924 22.1342 24.1676 22.1345C24.1491 22.1345 24.131 22.1293 24.1156 22.1196C24.1002 22.1099 24.0882 22.096 24.0811 22.0799C24.074 22.0637 24.0722 22.0459 24.0758 22.0287C24.0794 22.0116 24.0883 21.9958 24.1014 21.9834C24.1145 21.9711 24.1312 21.9626 24.1494 21.9592C24.1675 21.9558 24.1864 21.9576 24.2035 21.9643C24.2206 21.971 24.2352 21.9823 24.2455 21.9968C24.2558 22.0114 24.2613 22.0285 24.2613 22.046Z" fill="#DA840D"/>
<path d="M21.1121 21.7632C21.1121 21.8482 20.9947 21.9178 20.8511 21.9178C20.7075 21.9178 20.5901 21.8482 20.5901 21.7632C20.5901 21.6783 20.7062 21.6099 20.8511 21.6099C20.9959 21.6099 21.1121 21.6783 21.1121 21.7632Z" fill="#DA840D"/>
<path d="M16.2157 20.9679C16.2157 21.021 16.1245 21.0635 16.0121 21.0635C15.8998 21.0635 15.8086 21.021 15.8086 20.9679C15.8086 20.9148 15.8998 20.8735 16.0121 20.8735C16.1245 20.8735 16.2157 20.916 16.2157 20.9679Z" fill="#DA840D"/>
<path d="M17.4145 20.779C17.4145 20.8309 17.3108 20.8733 17.1834 20.8733C17.0561 20.8733 16.9512 20.8309 16.9512 20.779C16.9512 20.727 17.0548 20.6846 17.1834 20.6846C17.3121 20.6846 17.4145 20.727 17.4145 20.779Z" fill="#DA840D"/>
<path d="M18.9228 21.0104C18.9228 21.0859 18.7829 21.1472 18.6093 21.1472C18.4358 21.1472 18.2959 21.0859 18.2959 21.0104C18.2959 20.9349 18.437 20.8735 18.6093 20.8735C18.7817 20.8735 18.9228 20.9349 18.9228 21.0104Z" fill="#DA840D"/>
<path d="M20.0343 20.779C20.0346 20.798 20.0288 20.8166 20.0178 20.8325C20.0068 20.8484 19.991 20.8608 19.9725 20.8682C19.9539 20.8756 19.9335 20.8776 19.9138 20.8739C19.894 20.8703 19.8759 20.8611 19.8617 20.8477C19.8474 20.8343 19.8378 20.8171 19.8339 20.7985C19.8301 20.7798 19.8322 20.7605 19.84 20.743C19.8478 20.7255 19.8609 20.7106 19.8778 20.7002C19.8946 20.6898 19.9143 20.6843 19.9344 20.6846C19.9609 20.6846 19.9863 20.6945 20.0051 20.7122C20.0238 20.7299 20.0343 20.7539 20.0343 20.779Z" fill="#DA840D"/>
<path d="M19.8333 21.5263C19.8333 21.5724 19.7384 21.6101 19.6198 21.6101C19.5011 21.6101 19.4075 21.5724 19.4075 21.5263C19.4075 21.4803 19.5024 21.4414 19.6198 21.4414C19.7371 21.4414 19.8333 21.4792 19.8333 21.5263Z" fill="#DA840D"/>
<path d="M21.5027 20.738C21.5029 20.7656 21.4944 20.7925 21.4783 20.8155C21.4621 20.8384 21.4391 20.8563 21.4121 20.8668C21.3851 20.8772 21.3555 20.8799 21.3269 20.8743C21.2984 20.8687 21.2722 20.8552 21.2519 20.8354C21.2316 20.8157 21.2179 20.7907 21.2128 20.7635C21.2076 20.7364 21.2111 20.7085 21.2229 20.6833C21.2347 20.6581 21.2542 20.6368 21.2789 20.6222C21.3036 20.6075 21.3324 20.6002 21.3615 20.6012C21.3994 20.6018 21.4355 20.6165 21.4619 20.6421C21.4883 20.6678 21.503 20.7022 21.5027 20.738Z" fill="#DA840D"/>
<path d="M22.2982 21.2949C22.2982 21.3173 22.2245 21.3362 22.1321 21.3362C22.0397 21.3362 21.9673 21.3173 21.9673 21.2949C21.9673 21.2725 22.041 21.2524 22.1321 21.2524C22.2233 21.2524 22.2982 21.2713 22.2982 21.2949Z" fill="#DA840D"/>
<path d="M22.8169 21.0222C22.8197 21.0347 22.8184 21.0477 22.8131 21.0594C22.8078 21.0711 22.7988 21.0809 22.7873 21.0876C22.7758 21.0942 22.7624 21.0973 22.7489 21.0964C22.7355 21.0955 22.7227 21.0907 22.7122 21.0826C22.7018 21.0746 22.6943 21.0636 22.6908 21.0514C22.6872 21.0391 22.6878 21.026 22.6924 21.0141C22.6971 21.0021 22.7055 20.9918 22.7166 20.9846C22.7278 20.9774 22.741 20.9737 22.7544 20.9739C22.7695 20.9725 22.7845 20.9769 22.7962 20.9859C22.8079 20.995 22.8153 21.008 22.8169 21.0222Z" fill="#DA840D"/>
<path d="M22.2983 21.2949C22.2954 21.3205 22.2847 21.3448 22.2676 21.3648C22.2504 21.3847 22.2275 21.3996 22.2016 21.4076C22.1757 21.4155 22.1479 21.4162 22.1216 21.4096C22.0953 21.4029 22.0715 21.3893 22.0533 21.3702C22.035 21.3511 22.023 21.3274 22.0186 21.302C22.0143 21.2766 22.0178 21.2506 22.0288 21.227C22.0398 21.2035 22.0578 21.1834 22.0805 21.1693C22.1033 21.1552 22.1299 21.1476 22.1572 21.1475C22.1767 21.1484 22.1958 21.1529 22.2135 21.1608C22.2312 21.1687 22.247 21.1798 22.2601 21.1935C22.2732 21.2072 22.2833 21.2232 22.2899 21.2406C22.2964 21.258 22.2993 21.2765 22.2983 21.2949Z" fill="#DA840D"/>
<path d="M23.1001 21.0574C23.1001 21.107 23.0226 21.1471 22.9265 21.1471C22.8303 21.1471 22.7542 21.107 22.7542 21.0574C22.7542 21.0079 22.8316 20.9678 22.9265 20.9678C23.0214 20.9678 23.1001 21.0079 23.1001 21.0574Z" fill="#DA840D"/>
<path d="M27.3145 20.4889C27.3145 22.012 23.8879 23.4301 19.7633 23.4301C15.6386 23.4301 12.187 21.907 12.187 20.3827C12.187 18.8585 15.6386 17.9111 19.7633 17.9111C23.8879 17.9111 27.3145 18.9647 27.3145 20.4889Z" fill="#E3AC8A"/>
<path d="M27.2309 20.1964C27.2309 21.7207 23.8867 22.9559 19.762 22.9559C15.6373 22.9559 12.2957 21.7183 12.2957 20.1964C12.2957 18.6745 15.6386 17.4346 19.7633 17.4346C23.8879 17.4346 27.2309 18.6698 27.2309 20.1964Z" fill="#DA840D"/>
<path d="M25.1967 19.9333C25.1967 21.0635 22.7154 21.9802 19.6559 21.9802C16.5964 21.9802 14.1189 21.0635 14.1189 19.9333C14.1189 18.8031 16.5964 17.8853 19.6559 17.8853C22.7154 17.8853 25.1967 18.8019 25.1967 19.9333Z" fill="#F0A508"/>
<path d="M15.9258 20.6884C15.9258 20.8064 15.7859 20.909 15.6111 20.909C15.4362 20.909 15.2964 20.8099 15.2964 20.6884C15.2964 20.5669 15.4375 20.4678 15.6173 20.4678C15.7971 20.4678 15.9258 20.5657 15.9258 20.6884Z" fill="#DA840D"/>
<path d="M15.2963 19.7589C15.2949 19.7913 15.2834 19.8227 15.2633 19.849C15.2431 19.8754 15.2153 19.8956 15.1832 19.9072C15.151 19.9188 15.116 19.9212 15.0824 19.9142C15.0489 19.9072 15.0182 19.8911 14.9942 19.8678C14.9702 19.8445 14.954 19.8151 14.9475 19.7832C14.941 19.7512 14.9446 19.7182 14.9577 19.6882C14.9708 19.6582 14.993 19.6325 15.0214 19.6142C15.0499 19.5959 15.0834 19.5859 15.1178 19.5854C15.1416 19.5856 15.1651 19.5902 15.1871 19.5991C15.209 19.6079 15.2288 19.6207 15.2454 19.6369C15.2621 19.653 15.2751 19.6721 15.2838 19.693C15.2926 19.714 15.2968 19.7364 15.2963 19.7589Z" fill="#DA840D"/>
<path d="M17.4908 20.9564C17.4945 21.0135 17.48 21.0703 17.4492 21.1196C17.4184 21.1688 17.3726 21.2081 17.3178 21.2325C17.263 21.2568 17.2018 21.265 17.142 21.2561C17.0822 21.2472 17.0266 21.2215 16.9824 21.1823C16.9383 21.1432 16.9076 21.0924 16.8943 21.0366C16.881 20.9808 16.8858 20.9225 16.908 20.8693C16.9303 20.8161 16.9689 20.7705 17.0189 20.7382C17.0689 20.706 17.128 20.6887 17.1886 20.6886C17.2662 20.6864 17.3416 20.7133 17.3983 20.7635C17.4549 20.8137 17.4882 20.8831 17.4908 20.9564Z" fill="#DA840D"/>
<path d="M16.825 19.8921C16.825 19.9664 16.7389 20.0266 16.6327 20.0266C16.5266 20.0266 16.4417 19.9664 16.4417 19.8921C16.4417 19.8178 16.5278 19.7588 16.6327 19.7588C16.7376 19.7588 16.825 19.819 16.825 19.8921Z" fill="#DA840D"/>
<path d="M18.7555 20.5258C18.7601 20.5629 18.7526 20.6004 18.7341 20.6333C18.7156 20.6663 18.6869 20.6931 18.6519 20.7103C18.6168 20.7275 18.5771 20.7343 18.5379 20.7297C18.4987 20.7251 18.4619 20.7093 18.4325 20.6845C18.403 20.6597 18.3821 20.627 18.3728 20.5908C18.3634 20.5545 18.3659 20.5165 18.3799 20.4816C18.394 20.4467 18.4189 20.4167 18.4514 20.3955C18.4839 20.3744 18.5225 20.363 18.5619 20.363C18.6104 20.3607 18.6578 20.3765 18.694 20.407C18.7302 20.4374 18.7523 20.4801 18.7555 20.5258Z" fill="#DA840D"/>
<path d="M18.8291 21.5074C18.8291 21.5829 18.7367 21.6443 18.6218 21.6443C18.507 21.6443 18.4146 21.5829 18.4146 21.5074C18.4146 21.4319 18.507 21.3765 18.6218 21.3765C18.7367 21.3765 18.8291 21.4331 18.8291 21.5074Z" fill="#DA840D"/>
<path d="M18.0028 20.0432C18.0028 20.0805 17.9871 20.1162 17.9592 20.1425C17.9314 20.1688 17.8936 20.1836 17.8542 20.1836C17.8148 20.1836 17.777 20.1688 17.7491 20.1425C17.7212 20.1162 17.7056 20.0805 17.7056 20.0432C17.7056 20.006 17.7212 19.9703 17.7491 19.944C17.777 19.9176 17.8148 19.9028 17.8542 19.9028C17.8936 19.9028 17.9314 19.9176 17.9592 19.944C17.9871 19.9703 18.0028 20.006 18.0028 20.0432Z" fill="#DA840D"/>
<path d="M20.1528 20.3308C20.1528 20.4063 20.0629 20.4676 19.9518 20.4676C19.8406 20.4676 19.7507 20.4063 19.7507 20.3308C19.7507 20.2553 19.8406 20.1963 19.9518 20.1963C20.0629 20.1963 20.1528 20.2553 20.1528 20.3308Z" fill="#DA840D"/>
<path d="M20.1528 21.0375C20.1528 21.0823 20.0629 21.1189 19.9518 21.1189C19.8406 21.1189 19.7507 21.0823 19.7507 21.0375C19.7507 20.9926 19.8406 20.9561 19.9518 20.9561C20.0629 20.9561 20.1528 20.9926 20.1528 21.0375Z" fill="#DA840D"/>
<path d="M21.5128 20.5775C21.5128 20.6388 21.4317 20.6884 21.3305 20.6884C21.2294 20.6884 21.1482 20.6388 21.1482 20.5775C21.1482 20.5161 21.2306 20.4678 21.3305 20.4678C21.4304 20.4678 21.5128 20.5173 21.5128 20.5775Z" fill="#DA840D"/>
<path d="M21.2954 21.3657C21.3045 21.4026 21.3012 21.4414 21.2859 21.4765C21.2707 21.5116 21.2442 21.5413 21.2103 21.5616C21.1763 21.5818 21.1365 21.5916 21.0964 21.5896C21.0563 21.5875 21.0179 21.5737 20.9865 21.5501C20.955 21.5265 20.9321 21.4943 20.921 21.4578C20.9098 21.4214 20.9109 21.3826 20.9241 21.3467C20.9374 21.3109 20.9621 21.2799 20.9948 21.2579C21.0276 21.2359 21.0667 21.2241 21.1069 21.2241C21.1517 21.2195 21.1967 21.2317 21.232 21.2582C21.2673 21.2848 21.2901 21.3234 21.2954 21.3657Z" fill="#DA840D"/>
<path d="M22.8092 21.1402C22.8001 21.1746 22.781 21.2059 22.7541 21.2306C22.7271 21.2553 22.6934 21.2723 22.6567 21.2798C22.6201 21.2873 22.5819 21.285 22.5466 21.2731C22.5112 21.2612 22.4801 21.2402 22.4568 21.2124C22.4334 21.1847 22.4187 21.1513 22.4144 21.1161C22.4101 21.0809 22.4163 21.0452 22.4323 21.0132C22.4483 20.9811 22.4735 20.9539 22.505 20.9347C22.5365 20.9154 22.5731 20.9049 22.6106 20.9043C22.6403 20.9071 22.669 20.9154 22.6951 20.9289C22.7212 20.9423 22.7442 20.9606 22.7628 20.9826C22.7813 21.0046 22.7949 21.0299 22.8029 21.057C22.8109 21.084 22.813 21.1124 22.8092 21.1402Z" fill="#DA840D"/>
<path d="M22.7002 20.1101C22.7002 20.1561 22.6365 20.1939 22.5579 20.1939C22.4792 20.1939 22.4167 20.1561 22.4167 20.1101C22.4167 20.0641 22.4792 20.0264 22.5579 20.0264C22.6365 20.0264 22.7002 20.0641 22.7002 20.1101Z" fill="#DA840D"/>
<path d="M23.8992 20.3567C23.8992 20.5396 23.8131 20.6882 23.7069 20.6882C23.6008 20.6882 23.5159 20.5396 23.5159 20.3567C23.5159 20.1738 23.602 20.0264 23.7069 20.0264C23.8118 20.0264 23.8992 20.1738 23.8992 20.3567Z" fill="#DA840D"/>
<path d="M24.3787 20.0221C24.3784 20.0393 24.3728 20.0561 24.3625 20.0703C24.3522 20.0845 24.3377 20.0955 24.3208 20.1019C24.3038 20.1083 24.2853 20.1099 24.2675 20.1064C24.2496 20.1029 24.2333 20.0945 24.2205 20.0822C24.2077 20.07 24.199 20.0544 24.1955 20.0375C24.1921 20.0206 24.194 20.0031 24.201 19.9872C24.208 19.9713 24.2199 19.9578 24.235 19.9482C24.2502 19.9387 24.268 19.9336 24.2862 19.9336C24.3109 19.9339 24.3344 19.9434 24.3517 19.9599C24.369 19.9765 24.3787 19.9988 24.3787 20.0221Z" fill="#DA840D"/>
<path d="M21.2295 19.7388C21.2295 19.8238 21.1133 19.8922 20.9697 19.8922C20.8261 19.8922 20.7087 19.8238 20.7087 19.7388C20.7087 19.6539 20.8249 19.5854 20.9697 19.5854C21.1146 19.5854 21.2295 19.6539 21.2295 19.7388Z" fill="#DA840D"/>
<path d="M16.3344 18.9447C16.3344 18.9966 16.2432 19.0391 16.1308 19.0391C16.0184 19.0391 15.926 18.9966 15.926 18.9447C15.926 18.8928 16.0172 18.8491 16.1308 18.8491C16.2445 18.8491 16.3344 18.8916 16.3344 18.9447Z" fill="#DA840D"/>
<path d="M17.5329 18.755C17.5329 18.8081 17.4292 18.8494 17.3006 18.8494C17.172 18.8494 17.0696 18.8081 17.0696 18.755C17.0696 18.7019 17.1732 18.6606 17.3006 18.6606C17.428 18.6606 17.5329 18.7031 17.5329 18.755Z" fill="#DA840D"/>
<path d="M19.0414 18.986C19.0414 19.0615 18.9016 19.1228 18.728 19.1228C18.5544 19.1228 18.4146 19.0615 18.4146 18.986C18.4146 18.9105 18.5557 18.8491 18.728 18.8491C18.9003 18.8491 19.0414 18.9105 19.0414 18.986Z" fill="#DA840D"/>
<path d="M20.1532 18.7549C20.1504 18.7782 20.1387 18.7998 20.1201 18.8155C20.1016 18.8312 20.0776 18.8398 20.0527 18.8398C20.0278 18.8398 20.0038 18.8312 19.9852 18.8155C19.9667 18.7998 19.9549 18.7782 19.9521 18.7549C19.9549 18.7315 19.9667 18.7099 19.9852 18.6943C20.0038 18.6786 20.0278 18.6699 20.0527 18.6699C20.0776 18.6699 20.1016 18.6786 20.1201 18.6943C20.1387 18.7099 20.1504 18.7315 20.1532 18.7549Z" fill="#DA840D"/>
<path d="M19.9517 19.5003C19.9517 19.5475 19.8568 19.5852 19.7382 19.5852C19.6196 19.5852 19.5247 19.5475 19.5247 19.5003C19.5247 19.4531 19.6208 19.4165 19.7382 19.4165C19.8556 19.4165 19.9517 19.4543 19.9517 19.5003Z" fill="#DA840D"/>
<path d="M21.6215 18.7135C21.6218 18.7409 21.6134 18.7677 21.5975 18.7905C21.5816 18.8134 21.5589 18.8313 21.5322 18.8419C21.5056 18.8525 21.4761 18.8554 21.4477 18.8502C21.4193 18.845 21.3931 18.832 21.3726 18.8127C21.352 18.7935 21.338 18.7689 21.3322 18.7421C21.3265 18.7153 21.3293 18.6875 21.3403 18.6622C21.3514 18.6369 21.3701 18.6152 21.3941 18.6C21.4182 18.5848 21.4465 18.5767 21.4754 18.5767C21.4946 18.5764 21.5137 18.5797 21.5315 18.5864C21.5493 18.5932 21.5654 18.6032 21.5791 18.616C21.5927 18.6287 21.6034 18.6439 21.6107 18.6607C21.618 18.6775 21.6217 18.6954 21.6215 18.7135Z" fill="#DA840D"/>
<path d="M22.4169 19.2705C22.4169 19.2929 22.3419 19.3118 22.2508 19.3118C22.1596 19.3118 22.0859 19.2929 22.0859 19.2705C22.0859 19.2481 22.1596 19.228 22.2508 19.228C22.3419 19.228 22.4169 19.2528 22.4169 19.2705Z" fill="#DA840D"/>
<path d="M22.9352 18.9923C22.9313 19.0051 22.9231 19.0163 22.9119 19.0244C22.9006 19.0324 22.8869 19.0367 22.8727 19.0367C22.8586 19.0367 22.8449 19.0324 22.8336 19.0244C22.8224 19.0163 22.8142 19.0051 22.8103 18.9923C22.8142 18.9794 22.8224 18.9682 22.8336 18.9601C22.8449 18.9521 22.8586 18.9478 22.8727 18.9478C22.8869 18.9478 22.9006 18.9521 22.9119 18.9601C22.9231 18.9682 22.9313 18.9794 22.9352 18.9923Z" fill="#DA840D"/>
<path d="M22.4169 19.2705C22.414 19.2961 22.4034 19.3204 22.3862 19.3403C22.3691 19.3603 22.3461 19.3752 22.3202 19.3831C22.2943 19.3911 22.2665 19.3918 22.2402 19.3852C22.2139 19.3785 22.1902 19.3648 22.1719 19.3458C22.1537 19.3267 22.1416 19.303 22.1373 19.2776C22.133 19.2522 22.1365 19.2261 22.1475 19.2026C22.1585 19.1791 22.1764 19.159 22.1992 19.1449C22.222 19.1308 22.2486 19.1232 22.2758 19.123C22.2953 19.124 22.3145 19.1285 22.3321 19.1364C22.3498 19.1443 22.3656 19.1554 22.3788 19.1691C22.3919 19.1828 22.402 19.1988 22.4085 19.2162C22.4151 19.2336 22.4179 19.2521 22.4169 19.2705Z" fill="#DA840D"/>
<path d="M23.2185 19.0333C23.2185 19.0829 23.1411 19.123 23.0449 19.123C22.9488 19.123 22.8713 19.0829 22.8713 19.0333C22.8713 18.9838 22.9488 18.9448 23.0449 18.9448C23.1411 18.9448 23.2185 18.9838 23.2185 19.0333Z" fill="#DA840D"/>
<path d="M27.3145 19.188C27.3145 20.7122 23.8879 22.1291 19.7633 22.1291C15.6386 22.1291 12.187 20.6072 12.187 19.083C12.187 17.5587 15.6386 16.6055 19.7633 16.6055C23.8879 16.6055 27.3145 17.6637 27.3145 19.188Z" fill="#E3AC8A"/>
<path d="M27.2309 18.8988C27.2309 20.4219 23.8867 21.6583 19.762 21.6583C15.6373 21.6583 12.2957 20.4172 12.2957 18.8988C12.2957 17.3805 15.6386 16.1382 19.7633 16.1382C23.8879 16.1382 27.2309 17.3651 27.2309 18.8988Z" fill="#DA840D"/>
<path d="M25.1967 18.6321C25.1967 19.7623 22.7154 20.679 19.6559 20.679C16.5964 20.679 14.1189 19.7623 14.1189 18.6321C14.1189 17.5018 16.5964 16.584 19.6559 16.584C22.7154 16.584 25.1967 17.5007 25.1967 18.6321Z" fill="#F0A508"/>
<path d="M15.9258 19.3871C15.9258 19.5051 15.7859 19.6077 15.6111 19.6077C15.4362 19.6077 15.2964 19.5086 15.2964 19.3871C15.2964 19.2656 15.4375 19.1665 15.6111 19.1665C15.7847 19.1665 15.9258 19.2656 15.9258 19.3871Z" fill="#DA840D"/>
<path d="M15.2963 18.4576C15.2949 18.4901 15.2834 18.5214 15.2633 18.5478C15.2431 18.5741 15.2153 18.5943 15.1832 18.6059C15.151 18.6175 15.116 18.6199 15.0824 18.6129C15.0489 18.6059 15.0182 18.5898 14.9942 18.5665C14.9702 18.5432 14.954 18.5138 14.9475 18.4819C14.941 18.45 14.9446 18.417 14.9577 18.3869C14.9708 18.3569 14.993 18.3312 15.0214 18.3129C15.0499 18.2947 15.0834 18.2847 15.1178 18.2842C15.1416 18.2843 15.1651 18.289 15.1871 18.2978C15.209 18.3066 15.2288 18.3195 15.2454 18.3356C15.2621 18.3517 15.2751 18.3708 15.2838 18.3918C15.2926 18.4127 15.2968 18.4351 15.2963 18.4576Z" fill="#DA840D"/>
<path d="M17.1848 19.9228C17.3517 19.9228 17.487 19.8029 17.487 19.655C17.487 19.5071 17.3517 19.3872 17.1848 19.3872C17.0179 19.3872 16.8826 19.5071 16.8826 19.655C16.8826 19.8029 17.0179 19.9228 17.1848 19.9228Z" fill="#DA840D"/>
<path d="M16.825 18.592C16.825 18.6652 16.7389 18.7253 16.6327 18.7253C16.5266 18.7253 16.4417 18.6628 16.4417 18.592C16.4417 18.5212 16.5278 18.4575 16.6327 18.4575C16.7376 18.4575 16.825 18.5177 16.825 18.592Z" fill="#DA840D"/>
<path d="M18.7555 19.2245C18.7601 19.2616 18.7526 19.2991 18.7341 19.332C18.7156 19.365 18.6869 19.3919 18.6519 19.4091C18.6168 19.4263 18.5771 19.433 18.5379 19.4284C18.4987 19.4238 18.4619 19.408 18.4325 19.3832C18.403 19.3584 18.3821 19.3257 18.3728 19.2895C18.3634 19.2533 18.3659 19.2152 18.3799 19.1803C18.394 19.1455 18.4189 19.1155 18.4514 19.0943C18.4839 19.0731 18.5225 19.0617 18.5619 19.0617C18.6104 19.0595 18.6578 19.0753 18.694 19.1057C18.7302 19.1362 18.7523 19.1788 18.7555 19.2245Z" fill="#DA840D"/>
<path d="M18.8291 20.206C18.8291 20.2815 18.7367 20.3428 18.6218 20.3428C18.507 20.3428 18.4146 20.2815 18.4146 20.206C18.4146 20.1305 18.507 20.0703 18.6218 20.0703C18.7367 20.0703 18.8291 20.1317 18.8291 20.206Z" fill="#DA840D"/>
<path d="M18.0026 18.7428C18.0004 18.77 17.9899 18.7961 17.9723 18.8177C17.9547 18.8393 17.9308 18.8557 17.9035 18.8647C17.8762 18.8737 17.8468 18.875 17.8187 18.8685C17.7907 18.8619 17.7653 18.8478 17.7456 18.8278C17.7259 18.8078 17.7128 18.7828 17.7079 18.7559C17.7031 18.729 17.7066 18.7013 17.7181 18.6763C17.7296 18.6513 17.7486 18.6299 17.7727 18.6149C17.7969 18.5999 17.8251 18.5919 17.854 18.5918C17.8948 18.5933 17.9334 18.6101 17.9612 18.6384C17.9891 18.6667 18.0039 18.7042 18.0026 18.7428Z" fill="#DA840D"/>
<path d="M20.1528 19.0299C20.1528 19.1054 20.0629 19.1667 19.9518 19.1667C19.8406 19.1667 19.7507 19.1054 19.7507 19.0299C19.7507 18.9544 19.8406 18.8989 19.9518 18.8989C20.0629 18.8989 20.1528 18.9544 20.1528 19.0299Z" fill="#DA840D"/>
<path d="M20.1528 19.7362C20.1528 19.781 20.0629 19.8176 19.9518 19.8176C19.8406 19.8176 19.7507 19.781 19.7507 19.7362C19.7507 19.6914 19.8406 19.6548 19.9518 19.6548C20.0629 19.6548 20.1528 19.6914 20.1528 19.7362Z" fill="#DA840D"/>
<path d="M21.5128 19.2762C21.5128 19.3376 21.4317 19.3871 21.3305 19.3871C21.2294 19.3871 21.1482 19.3376 21.1482 19.2762C21.1482 19.2149 21.2306 19.1665 21.3305 19.1665C21.4304 19.1665 21.5128 19.2161 21.5128 19.2762Z" fill="#DA840D"/>
<path d="M21.2954 20.0644C21.3045 20.1014 21.3012 20.1401 21.2859 20.1752C21.2707 20.2103 21.2442 20.24 21.2103 20.2603C21.1763 20.2806 21.1365 20.2903 21.0964 20.2883C21.0563 20.2863 21.0179 20.2725 20.9865 20.2489C20.955 20.2253 20.9321 20.193 20.921 20.1566C20.9098 20.1201 20.9109 20.0813 20.9241 20.0455C20.9374 20.0096 20.9621 19.9786 20.9948 19.9566C21.0276 19.9346 21.0667 19.9228 21.1069 19.9228C21.1517 19.9182 21.1967 19.9305 21.232 19.957C21.2673 19.9835 21.2901 20.0221 21.2954 20.0644Z" fill="#DA840D"/>
<path d="M22.8092 19.8424C22.8001 19.8768 22.781 19.9081 22.754 19.9328C22.7271 19.9574 22.6934 19.9745 22.6567 19.982C22.62 19.9895 22.5819 19.9872 22.5465 19.9753C22.5112 19.9633 22.4801 19.9423 22.4568 19.9146C22.4334 19.8868 22.4187 19.8534 22.4144 19.8182C22.4101 19.783 22.4163 19.7474 22.4323 19.7153C22.4483 19.6832 22.4735 19.6561 22.505 19.6368C22.5365 19.6176 22.5731 19.6071 22.6106 19.6064C22.6403 19.6091 22.6691 19.6173 22.6953 19.6307C22.7216 19.6441 22.7446 19.6624 22.7632 19.6844C22.7817 19.7065 22.7954 19.7318 22.8033 19.759C22.8112 19.7861 22.8132 19.8145 22.8092 19.8424Z" fill="#DA840D"/>
<path d="M22.7002 18.8094C22.7002 18.8565 22.6365 18.8943 22.5579 18.8943C22.4792 18.8943 22.4167 18.8565 22.4167 18.8094C22.4167 18.7622 22.4792 18.7256 22.5579 18.7256C22.6365 18.7256 22.7002 18.7633 22.7002 18.8094Z" fill="#DA840D"/>
<path d="M23.8992 19.0559C23.8992 19.2388 23.8131 19.3874 23.7069 19.3874C23.6008 19.3874 23.5159 19.2388 23.5159 19.0559C23.5159 18.8731 23.602 18.7256 23.7069 18.7256C23.8118 18.7256 23.8992 18.8742 23.8992 19.0559Z" fill="#DA840D"/>
<path d="M24.3787 18.7208C24.3784 18.738 24.3728 18.7548 24.3625 18.769C24.3522 18.7832 24.3377 18.7942 24.3208 18.8006C24.3039 18.8071 24.2853 18.8086 24.2675 18.8051C24.2496 18.8016 24.2333 18.7932 24.2205 18.7809C24.2077 18.7687 24.199 18.7531 24.1955 18.7362C24.1921 18.7193 24.194 18.7018 24.201 18.686C24.208 18.6701 24.2199 18.6565 24.235 18.647C24.2502 18.6374 24.268 18.6323 24.2863 18.6323C24.2985 18.6323 24.3106 18.6346 24.3219 18.6391C24.3332 18.6435 24.3434 18.6501 24.352 18.6583C24.3606 18.6665 24.3674 18.6763 24.372 18.687C24.3766 18.6978 24.3788 18.7092 24.3787 18.7208Z" fill="#DA840D"/>
<path d="M21.2295 18.4375C21.2295 18.5225 21.1133 18.5921 20.9697 18.5921C20.8261 18.5921 20.7087 18.5225 20.7087 18.4375C20.7087 18.3526 20.8249 18.2842 20.9697 18.2842C21.1146 18.2842 21.2295 18.3526 21.2295 18.4375Z" fill="#DA840D"/>
<path d="M16.3344 17.6437C16.3344 17.6956 16.2432 17.7381 16.1308 17.7381C16.0184 17.7381 15.926 17.6956 15.926 17.6437C15.926 17.5918 16.0172 17.5493 16.1308 17.5493C16.2445 17.5493 16.3344 17.5918 16.3344 17.6437Z" fill="#DA840D"/>
<path d="M17.5329 17.4533C17.5329 17.5064 17.4292 17.5488 17.3006 17.5488C17.172 17.5488 17.0696 17.5064 17.0696 17.4533C17.0696 17.4002 17.1732 17.3589 17.3006 17.3589C17.428 17.3589 17.5329 17.4014 17.5329 17.4533Z" fill="#DA840D"/>
<path d="M19.0414 17.685C19.0414 17.7605 18.9016 17.8218 18.728 17.8218C18.5544 17.8218 18.4146 17.7605 18.4146 17.685C18.4146 17.6095 18.5557 17.5493 18.728 17.5493C18.9003 17.5493 19.0414 17.6095 19.0414 17.685Z" fill="#DA840D"/>
<path d="M20.153 17.4538C20.1532 17.4728 20.1475 17.4914 20.1364 17.5073C20.1254 17.5232 20.1096 17.5356 20.0911 17.543C20.0726 17.5504 20.0521 17.5524 20.0324 17.5487C20.0127 17.5451 19.9945 17.5359 19.9803 17.5225C19.9661 17.5091 19.9564 17.4919 19.9526 17.4733C19.9487 17.4546 19.9508 17.4353 19.9586 17.4178C19.9664 17.4003 19.9796 17.3854 19.9964 17.375C20.0132 17.3646 20.033 17.3591 20.0531 17.3594C20.0796 17.3594 20.105 17.3693 20.1237 17.387C20.1424 17.4047 20.153 17.4287 20.153 17.4538Z" fill="#DA840D"/>
<path d="M19.9517 18.2002C19.9517 18.2462 19.8568 18.2839 19.7382 18.2839C19.6196 18.2839 19.5247 18.2462 19.5247 18.2002C19.5247 18.1542 19.6208 18.1152 19.7382 18.1152C19.8556 18.1152 19.9517 18.153 19.9517 18.2002Z" fill="#DA840D"/>
<path d="M21.6215 17.4123C21.6218 17.4396 21.6134 17.4664 21.5975 17.4893C21.5816 17.5121 21.5589 17.53 21.5322 17.5406C21.5056 17.5512 21.4761 17.5541 21.4477 17.549C21.4193 17.5438 21.3931 17.5307 21.3726 17.5115C21.352 17.4922 21.338 17.4676 21.3322 17.4408C21.3265 17.414 21.3293 17.3862 21.3403 17.3609C21.3514 17.3356 21.3701 17.314 21.3941 17.2987C21.4182 17.2835 21.4465 17.2754 21.4754 17.2754C21.4946 17.2752 21.5135 17.2787 21.5313 17.2855C21.549 17.2923 21.5651 17.3023 21.5787 17.3151C21.5923 17.3278 21.603 17.3429 21.6104 17.3596C21.6178 17.3763 21.6215 17.3942 21.6215 17.4123Z" fill="#DA840D"/>
<path d="M22.4169 17.9692C22.4169 17.9916 22.3419 18.0105 22.2508 18.0105C22.1596 18.0105 22.0859 17.9916 22.0859 17.9692C22.0859 17.9468 22.1596 17.9268 22.2508 17.9268C22.3419 17.9268 22.4169 17.9456 22.4169 17.9692Z" fill="#DA840D"/>
<path d="M22.9355 17.6905C22.9386 17.7029 22.9376 17.7159 22.9325 17.7277C22.9275 17.7395 22.9187 17.7495 22.9073 17.7563C22.896 17.7632 22.8827 17.7666 22.8692 17.7659C22.8557 17.7653 22.8428 17.7608 22.8322 17.7529C22.8216 17.7451 22.8139 17.7343 22.8101 17.7221C22.8062 17.7099 22.8065 17.6969 22.8108 17.6849C22.8152 17.6728 22.8234 17.6624 22.8343 17.6549C22.8452 17.6475 22.8583 17.6434 22.8718 17.6433C22.8868 17.642 22.9018 17.6461 22.9136 17.6549C22.9255 17.6637 22.9333 17.6764 22.9355 17.6905Z" fill="#DA840D"/>
<path d="M22.4169 17.9692C22.414 17.9948 22.4034 18.0191 22.3862 18.0391C22.3691 18.059 22.3461 18.0739 22.3202 18.0819C22.2943 18.0898 22.2665 18.0905 22.2402 18.0839C22.2139 18.0773 22.1902 18.0636 22.1719 18.0445C22.1537 18.0254 22.1416 18.0017 22.1373 17.9763C22.133 17.9509 22.1365 17.9249 22.1475 17.9013C22.1585 17.8778 22.1764 17.8577 22.1992 17.8436C22.222 17.8295 22.2486 17.8219 22.2758 17.8218C22.2953 17.8227 22.3145 17.8272 22.3321 17.8351C22.3498 17.843 22.3656 17.8542 22.3788 17.8679C22.3919 17.8816 22.402 17.8976 22.4085 17.915C22.4151 17.9324 22.4179 17.9508 22.4169 17.9692Z" fill="#DA840D"/>
<path d="M23.2185 17.732C23.2185 17.7816 23.1411 17.8217 23.0449 17.8217C22.9488 17.8217 22.8713 17.7816 22.8713 17.732C22.8713 17.6825 22.9488 17.6436 23.0449 17.6436C23.1411 17.6436 23.2185 17.6837 23.2185 17.732Z" fill="#DA840D"/>
<path d="M27.0261 17.8477C26.8513 16.3824 23.7194 15.2168 19.8807 15.2168C16.2892 15.2168 13.3172 16.2373 12.8052 17.5669C12.6869 17.7466 12.623 17.9534 12.6204 18.165C12.6204 19.6893 15.9296 21.2124 19.8807 21.2124C23.8318 21.2124 27.1135 19.7967 27.1135 18.27C27.1133 18.1253 27.0836 17.9819 27.0261 17.8477Z" fill="#C66720"/>
<path d="M27.4669 17.5837C27.4669 19.1079 24.0403 20.526 19.9156 20.526C15.7909 20.526 12.3394 19.0029 12.3394 17.4834C12.3394 15.9638 15.7909 15.0059 19.9156 15.0059C24.0403 15.0059 27.4669 16.0594 27.4669 17.5837Z" fill="#E3AC8A"/>
<path d="M27.4007 17.2895C27.4007 18.8138 24.154 19.9652 20.033 19.9652C15.9121 19.9652 12.5654 18.73 12.5654 17.2058C12.5654 15.6815 15.9084 14.4463 20.033 14.4463C24.1577 14.4463 27.4007 15.7653 27.4007 17.2895Z" fill="#DA840D"/>
<path d="M19.8083 19.0747C22.8684 19.0747 25.3491 18.1583 25.3491 17.0279C25.3491 15.8974 22.8684 14.981 19.8083 14.981C16.7483 14.981 14.2676 15.8974 14.2676 17.0279C14.2676 18.1583 16.7483 19.0747 19.8083 19.0747Z" fill="#F0A508"/>
<path d="M16.0783 17.7826C16.0783 17.9006 15.9372 18.0044 15.7637 18.0044C15.5901 18.0044 15.449 17.9053 15.449 17.7826C15.449 17.6599 15.5901 17.562 15.7637 17.562C15.9372 17.562 16.0783 17.6611 16.0783 17.7826Z" fill="#DA840D"/>
<path d="M15.4486 16.8543C15.4469 16.8868 15.4351 16.9181 15.4148 16.9444C15.3944 16.9706 15.3664 16.9906 15.3341 17.002C15.3018 17.0133 15.2667 17.0154 15.2331 17.0081C15.1996 17.0008 15.169 16.9843 15.1453 16.9608C15.1215 16.9372 15.1056 16.9076 15.0995 16.8756C15.0934 16.8435 15.0973 16.8105 15.1109 16.7806C15.1244 16.7507 15.147 16.7252 15.1757 16.7072C15.2044 16.6893 15.2381 16.6797 15.2725 16.6797C15.2963 16.6801 15.3197 16.685 15.3414 16.6941C15.3631 16.7031 15.3827 16.7161 15.3991 16.7324C15.4154 16.7486 15.4282 16.7677 15.4367 16.7886C15.4452 16.8096 15.4493 16.8319 15.4486 16.8543Z" fill="#DA840D"/>
<path d="M17.6393 18.0513C17.6428 18.1084 17.6281 18.1651 17.5971 18.2142C17.5661 18.2633 17.5202 18.3024 17.4654 18.3266C17.4105 18.3508 17.3493 18.3588 17.2896 18.3497C17.2299 18.3407 17.1744 18.3149 17.1304 18.2757C17.0863 18.2365 17.0558 18.1857 17.0426 18.1299C17.0295 18.0741 17.0344 18.0159 17.0566 17.9628C17.0789 17.9096 17.1175 17.864 17.1675 17.8319C17.2175 17.7997 17.2766 17.7824 17.3371 17.7824C17.3756 17.7813 17.414 17.7873 17.4501 17.8003C17.4861 17.8132 17.5191 17.8327 17.5472 17.8577C17.5753 17.8827 17.5978 17.9126 17.6136 17.9459C17.6294 17.9791 17.6382 18.0149 17.6393 18.0513Z" fill="#DA840D"/>
<path d="M16.9774 16.9873C16.9774 17.0616 16.8912 17.1206 16.7851 17.1206C16.6789 17.1206 16.594 17.0616 16.594 16.9873C16.594 16.913 16.6802 16.854 16.7851 16.854C16.89 16.854 16.9774 16.9142 16.9774 16.9873Z" fill="#DA840D"/>
<path d="M18.9081 17.6196C18.9126 17.6567 18.9052 17.6942 18.8867 17.7271C18.8682 17.7601 18.8395 17.7869 18.8045 17.8042C18.7694 17.8214 18.7297 17.8281 18.6905 17.8235C18.6513 17.8189 18.6145 17.8031 18.585 17.7783C18.5556 17.7535 18.5347 17.7208 18.5254 17.6846C18.516 17.6484 18.5185 17.6103 18.5325 17.5754C18.5466 17.5405 18.5715 17.5105 18.604 17.4894C18.6365 17.4682 18.675 17.4568 18.7145 17.4568C18.763 17.4542 18.8106 17.4699 18.8469 17.5004C18.8832 17.531 18.9052 17.5738 18.9081 17.6196Z" fill="#DA840D"/>
<path d="M18.9815 18.6027C18.9815 18.6782 18.8891 18.7395 18.7742 18.7395C18.6593 18.7395 18.5669 18.6782 18.5669 18.6027C18.5669 18.5272 18.6593 18.4658 18.7742 18.4658C18.8891 18.4658 18.9815 18.5272 18.9815 18.6027Z" fill="#DA840D"/>
<path d="M18.1549 17.1383C18.1527 17.1655 18.1422 17.1916 18.1246 17.2132C18.107 17.2349 18.0831 17.2512 18.0558 17.2602C18.0286 17.2692 17.9991 17.2705 17.9711 17.264C17.943 17.2574 17.9176 17.2433 17.8979 17.2233C17.8782 17.2033 17.8652 17.1783 17.8603 17.1514C17.8554 17.1245 17.8589 17.0968 17.8704 17.0718C17.8819 17.0468 17.9009 17.0254 17.9251 17.0104C17.9492 16.9954 17.9774 16.9874 18.0063 16.9873C18.0266 16.9879 18.0466 16.9923 18.065 17.0002C18.0835 17.0082 18.1001 17.0195 18.114 17.0335C18.1278 17.0476 18.1385 17.0641 18.1455 17.0821C18.1526 17.1 18.1558 17.1192 18.1549 17.1383Z" fill="#DA840D"/>
<path d="M20.3054 17.4264C20.3054 17.5019 20.2155 17.5621 20.1044 17.5621C19.9932 17.5621 19.9033 17.5019 19.9033 17.4264C19.9033 17.3509 19.9932 17.2896 20.1044 17.2896C20.2155 17.2896 20.3054 17.3509 20.3054 17.4264Z" fill="#DA840D"/>
<path d="M20.3054 18.1332C20.3054 18.178 20.2155 18.2146 20.1044 18.2146C19.9932 18.2146 19.9033 18.178 19.9033 18.1332C19.9033 18.0883 19.9932 18.0518 20.1044 18.0518C20.2155 18.0518 20.3054 18.0883 20.3054 18.1332Z" fill="#DA840D"/>
<path d="M21.6652 17.6729C21.6652 17.7343 21.5828 17.7826 21.4829 17.7826C21.383 17.7826 21.3005 17.7343 21.3005 17.6729C21.3005 17.6116 21.383 17.562 21.4829 17.562C21.5828 17.562 21.6652 17.6116 21.6652 17.6729Z" fill="#DA840D"/>
<path d="M21.4478 18.4613C21.4569 18.4982 21.4535 18.5369 21.4383 18.572C21.423 18.6071 21.3966 18.6369 21.3626 18.6572C21.3287 18.6774 21.2889 18.6872 21.2488 18.6852C21.2087 18.6831 21.1703 18.6693 21.1388 18.6457C21.1074 18.6221 21.0845 18.5899 21.0733 18.5534C21.0621 18.517 21.0632 18.4781 21.0765 18.4423C21.0897 18.4065 21.1144 18.3754 21.1472 18.3535C21.1799 18.3315 21.2191 18.3197 21.2592 18.3197C21.304 18.3154 21.3488 18.3277 21.384 18.3542C21.4193 18.3807 21.4422 18.4191 21.4478 18.4613Z" fill="#DA840D"/>
<path d="M22.9615 18.2321C22.9537 18.267 22.9356 18.299 22.9093 18.3246C22.8831 18.3502 22.8497 18.3682 22.813 18.3766C22.7763 18.385 22.7379 18.3834 22.7021 18.372C22.6664 18.3606 22.6348 18.3399 22.611 18.3123C22.5872 18.2846 22.5721 18.2512 22.5676 18.2158C22.5631 18.1804 22.5693 18.1445 22.5854 18.1123C22.6016 18.0801 22.627 18.0529 22.6589 18.0338C22.6908 18.0147 22.7277 18.0045 22.7654 18.0044C22.8231 18.0106 22.8759 18.038 22.9125 18.0805C22.9492 18.1231 22.9667 18.1775 22.9615 18.2321Z" fill="#DA840D"/>
<path d="M22.8516 17.2055C22.8516 17.2516 22.7891 17.2893 22.7104 17.2893C22.6318 17.2893 22.5693 17.2516 22.5693 17.2055C22.5693 17.1595 22.6318 17.1206 22.7104 17.1206C22.7891 17.1206 22.8516 17.1584 22.8516 17.2055Z" fill="#DA840D"/>
<path d="M24.0516 17.4521C24.0516 17.635 23.9654 17.7825 23.8593 17.7825C23.7531 17.7825 23.6682 17.635 23.6682 17.4521C23.6682 17.2693 23.7544 17.1206 23.8593 17.1206C23.9642 17.1206 24.0516 17.2693 24.0516 17.4521Z" fill="#DA840D"/>
<path d="M24.531 17.1175C24.5305 17.1347 24.5247 17.1513 24.5142 17.1653C24.5038 17.1794 24.4892 17.1902 24.4722 17.1965C24.4553 17.2027 24.4368 17.2041 24.4191 17.2005C24.4013 17.1968 24.3851 17.1883 24.3724 17.176C24.3597 17.1637 24.3512 17.1482 24.3478 17.1313C24.3444 17.1145 24.3464 17.097 24.3535 17.0812C24.3605 17.0654 24.3724 17.0519 24.3875 17.0424C24.4026 17.0329 24.4204 17.0278 24.4386 17.0278C24.4509 17.028 24.463 17.0304 24.4743 17.035C24.4856 17.0396 24.4958 17.0463 24.5044 17.0546C24.513 17.0629 24.5198 17.0727 24.5243 17.0835C24.5289 17.0943 24.5311 17.1059 24.531 17.1175Z" fill="#DA840D"/>
<path d="M21.3818 16.8342C21.3818 16.9192 21.2656 16.9876 21.122 16.9876C20.9784 16.9876 20.8623 16.9192 20.8623 16.8342C20.8623 16.7493 20.9784 16.6797 21.1233 16.6797C21.2681 16.6797 21.3818 16.7493 21.3818 16.8342Z" fill="#DA840D"/>
<path d="M16.4916 16.0392C16.4916 16.0911 16.4004 16.1336 16.2881 16.1336C16.1757 16.1336 16.0833 16.0911 16.0833 16.0392C16.0833 15.9873 16.1744 15.9448 16.2881 15.9448C16.4017 15.9448 16.4916 15.9873 16.4916 16.0392Z" fill="#DA840D"/>
<path d="M17.6857 15.8502C17.6857 15.9022 17.5821 15.9446 17.4534 15.9446C17.3248 15.9446 17.2224 15.9022 17.2224 15.8502C17.2224 15.7983 17.3261 15.7559 17.4534 15.7559C17.5808 15.7559 17.6857 15.7983 17.6857 15.8502Z" fill="#DA840D"/>
<path d="M19.1938 16.0814C19.1938 16.1569 19.0539 16.2182 18.8803 16.2182C18.7068 16.2182 18.5669 16.1569 18.5669 16.0814C18.5669 16.0058 18.7068 15.9492 18.8803 15.9492C19.0539 15.9492 19.1938 16.0058 19.1938 16.0814Z" fill="#DA840D"/>
<path d="M20.3053 15.8502C20.3056 15.8692 20.2998 15.8878 20.2889 15.9037C20.2779 15.9195 20.2622 15.932 20.2438 15.9394C20.2253 15.9468 20.2049 15.9488 20.1852 15.9453C20.1655 15.9417 20.1474 15.9327 20.1331 15.9194C20.1188 15.9061 20.1091 15.8891 20.1051 15.8705C20.1011 15.8519 20.103 15.8327 20.1106 15.8151C20.1182 15.7976 20.1312 15.7826 20.1478 15.7721C20.1645 15.7615 20.1841 15.7559 20.2042 15.7559C20.2174 15.7557 20.2305 15.758 20.2428 15.7627C20.255 15.7674 20.2662 15.7743 20.2756 15.7831C20.285 15.7919 20.2925 15.8023 20.2976 15.8139C20.3027 15.8254 20.3053 15.8378 20.3053 15.8502Z" fill="#DA840D"/>
<path d="M20.1041 16.596C20.1041 16.6432 20.0092 16.6797 19.8905 16.6797C19.7719 16.6797 19.677 16.6432 19.677 16.596C19.677 16.5488 19.7732 16.5122 19.8905 16.5122C20.0079 16.5122 20.1041 16.55 20.1041 16.596Z" fill="#DA840D"/>
<path d="M21.7739 15.8076C21.7744 15.8349 21.7662 15.8619 21.7505 15.8849C21.7347 15.9079 21.7121 15.9259 21.6854 15.9367C21.6588 15.9476 21.6293 15.9506 21.6008 15.9456C21.5723 15.9405 21.5461 15.9276 21.5254 15.9084C21.5047 15.8891 21.4905 15.8646 21.4847 15.8377C21.4788 15.8109 21.4816 15.783 21.4926 15.7576C21.5035 15.7323 21.5223 15.7106 21.5463 15.6953C21.5704 15.68 21.5988 15.6719 21.6278 15.6719C21.6468 15.6717 21.6657 15.6751 21.6833 15.6818C21.7009 15.6886 21.717 15.6985 21.7306 15.7111C21.7441 15.7237 21.7549 15.7387 21.7624 15.7553C21.7698 15.7718 21.7737 15.7896 21.7739 15.8076Z" fill="#DA840D"/>
<path d="M22.5692 16.3645C22.5692 16.3881 22.4943 16.407 22.4031 16.407C22.312 16.407 22.2383 16.3881 22.2383 16.3645C22.2383 16.3409 22.312 16.3232 22.4031 16.3232C22.4943 16.3232 22.5692 16.3421 22.5692 16.3645Z" fill="#DA840D"/>
<path d="M23.0873 16.0865C23.0904 16.0989 23.0894 16.1119 23.0844 16.1237C23.0793 16.1355 23.0705 16.1455 23.0592 16.1523C23.0478 16.1592 23.0345 16.1626 23.0211 16.1619C23.0076 16.1613 22.9947 16.1568 22.9841 16.1489C22.9735 16.1411 22.9657 16.1303 22.9619 16.1181C22.9581 16.1059 22.9584 16.0929 22.9627 16.0809C22.9671 16.0688 22.9753 16.0584 22.9862 16.0509C22.9971 16.0435 23.0102 16.0394 23.0237 16.0393C23.0387 16.038 23.0536 16.0421 23.0655 16.0509C23.0773 16.0597 23.0852 16.0724 23.0873 16.0865Z" fill="#DA840D"/>
<path d="M22.5692 16.3646C22.571 16.3831 22.5688 16.4017 22.5626 16.4193C22.5563 16.4369 22.5463 16.4531 22.5331 16.4668C22.5199 16.4806 22.5037 16.4915 22.4858 16.499C22.4678 16.5066 22.4484 16.5104 22.4287 16.5104C22.4091 16.5104 22.3896 16.5066 22.3717 16.499C22.3537 16.4915 22.3376 16.4806 22.3243 16.4668C22.3111 16.4531 22.3011 16.4369 22.2949 16.4193C22.2886 16.4017 22.2864 16.3831 22.2882 16.3646C22.2864 16.3461 22.2886 16.3275 22.2949 16.3099C22.3011 16.2923 22.3111 16.2761 22.3243 16.2623C22.3376 16.2486 22.3537 16.2376 22.3717 16.2301C22.3896 16.2226 22.4091 16.2188 22.4287 16.2188C22.4484 16.2188 22.4678 16.2226 22.4858 16.2301C22.5037 16.2376 22.5199 16.2486 22.5331 16.2623C22.5463 16.2761 22.5563 16.2923 22.5626 16.3099C22.5688 16.3275 22.571 16.3461 22.5692 16.3646Z" fill="#DA840D"/>
<path d="M23.3698 16.1287C23.3698 16.1783 23.2937 16.2184 23.1975 16.2184C23.1013 16.2184 23.0239 16.1783 23.0239 16.1287C23.0239 16.0792 23.1013 16.0391 23.1975 16.0391C23.2937 16.0391 23.3698 16.0792 23.3698 16.1287Z" fill="#DA840D"/>
<path d="M27.4344 16.1138C27.4344 17.0434 26.1607 17.933 24.2313 18.4851C22.8187 18.8724 21.3541 19.0643 19.8831 19.0549C18.3509 19.0549 17.0921 18.6739 15.8209 18.583C13.7005 18.4273 12.3069 16.9667 12.3069 16.0088C12.3069 14.4845 15.7597 13.5312 19.8831 13.5312C24.0066 13.5312 27.4344 14.5895 27.4344 16.1138Z" fill="#E3AC8A"/>
<path d="M27.3395 15.9118C27.3395 17.4361 23.9954 18.6713 19.8707 18.6713C15.746 18.6713 12.4031 17.4361 12.4031 15.9118C12.4031 14.3876 15.7423 13.1523 19.8707 13.1523C23.9991 13.1523 27.3395 14.3876 27.3395 15.9118Z" fill="#DA840D"/>
<path d="M25.3042 15.6506C25.3042 16.7808 22.8229 17.6975 19.7634 17.6975C16.704 17.6975 14.2227 16.7808 14.2227 15.6506C14.2227 14.5204 16.7027 13.6025 19.7634 13.6025C22.8241 13.6025 25.3042 14.5192 25.3042 15.6506Z" fill="#F0A508"/>
<path d="M16.0332 16.4062C16.0332 16.5241 15.8921 16.6268 15.7185 16.6268C15.5449 16.6268 15.4038 16.5277 15.4038 16.4062C15.4038 16.2846 15.5449 16.1855 15.7185 16.1855C15.8921 16.1855 16.0332 16.2835 16.0332 16.4062Z" fill="#DA840D"/>
<path d="M15.404 15.4776C15.4025 15.5102 15.391 15.5416 15.3708 15.568C15.3505 15.5944 15.3226 15.6147 15.2903 15.6262C15.258 15.6377 15.2229 15.64 15.1892 15.6328C15.1556 15.6256 15.1249 15.6092 15.101 15.5857C15.0771 15.5622 15.0611 15.5325 15.0549 15.5005C15.0487 15.4684 15.0526 15.4353 15.0661 15.4054C15.0796 15.3754 15.1021 15.3498 15.1309 15.3318C15.1597 15.3138 15.1934 15.3042 15.2279 15.3042C15.2515 15.3047 15.2748 15.3095 15.2965 15.3185C15.3181 15.3274 15.3376 15.3403 15.354 15.3564C15.3703 15.3726 15.3832 15.3915 15.3918 15.4123C15.4003 15.4331 15.4045 15.4553 15.404 15.4776Z" fill="#DA840D"/>
<path d="M17.5943 16.6737C17.5981 16.7308 17.5836 16.7876 17.5527 16.8368C17.5219 16.8861 17.4761 16.9254 17.4213 16.9497C17.3665 16.9741 17.3053 16.9823 17.2455 16.9734C17.1857 16.9645 17.1301 16.9388 17.0859 16.8996C17.0418 16.8605 17.0111 16.8097 16.9978 16.7539C16.9846 16.6981 16.9893 16.6398 17.0116 16.5866C17.0338 16.5334 17.0724 16.4877 17.1224 16.4555C17.1724 16.4233 17.2316 16.406 17.2921 16.4059C17.3697 16.4037 17.4451 16.4306 17.5018 16.4808C17.5584 16.531 17.5917 16.6004 17.5943 16.6737Z" fill="#DA840D"/>
<path d="M16.9324 15.6109C16.9324 15.684 16.8463 15.7442 16.7401 15.7442C16.634 15.7442 16.5491 15.684 16.5491 15.6109C16.5491 15.5377 16.6352 15.4775 16.7414 15.4775C16.8475 15.4775 16.9324 15.5365 16.9324 15.6109Z" fill="#DA840D"/>
<path d="M18.8642 16.2431C18.8685 16.2799 18.8609 16.3171 18.8423 16.3497C18.8238 16.3823 18.7952 16.4088 18.7604 16.4258C18.7255 16.4427 18.686 16.4492 18.6472 16.4445C18.6083 16.4398 18.5718 16.424 18.5427 16.3993C18.5135 16.3746 18.4929 16.3421 18.4837 16.3061C18.4745 16.2702 18.4771 16.2324 18.4911 16.1978C18.5051 16.1632 18.5299 16.1335 18.5622 16.1125C18.5944 16.0915 18.6327 16.0803 18.6719 16.0803C18.7202 16.078 18.7675 16.0939 18.8035 16.1243C18.8395 16.1548 18.8613 16.1975 18.8642 16.2431Z" fill="#DA840D"/>
<path d="M18.9366 17.2245C18.9366 17.3 18.8442 17.3614 18.7293 17.3614C18.6144 17.3614 18.522 17.3 18.522 17.2245C18.522 17.149 18.6144 17.0889 18.7293 17.0889C18.8442 17.0889 18.9366 17.1502 18.9366 17.2245Z" fill="#DA840D"/>
<path d="M18.115 15.7607C18.113 15.788 18.1027 15.8141 18.0852 15.8359C18.0678 15.8577 18.0439 15.8743 18.0167 15.8835C17.9894 15.8927 17.9599 15.8941 17.9317 15.8877C17.9036 15.8812 17.8781 15.8672 17.8583 15.8472C17.8385 15.8273 17.8253 15.8023 17.8203 15.7753C17.8154 15.7484 17.8188 15.7207 17.8303 15.6956C17.8418 15.6704 17.8608 15.649 17.885 15.634C17.9091 15.619 17.9374 15.6109 17.9664 15.6108C17.9866 15.6114 18.0064 15.6158 18.0248 15.6237C18.0432 15.6315 18.0598 15.6427 18.0736 15.6567C18.0874 15.6706 18.0981 15.6869 18.1052 15.7048C18.1123 15.7226 18.1157 15.7416 18.115 15.7607Z" fill="#DA840D"/>
<path d="M20.2604 16.0485C20.2604 16.124 20.1705 16.1853 20.0593 16.1853C19.9482 16.1853 19.8633 16.124 19.8633 16.0485C19.8633 15.973 19.9532 15.9116 20.0643 15.9116C20.1755 15.9116 20.2604 15.973 20.2604 16.0485Z" fill="#DA840D"/>
<path d="M20.2604 16.7552C20.2604 16.8001 20.1705 16.8366 20.0593 16.8366C19.9482 16.8366 19.8633 16.8001 19.8633 16.7552C19.8633 16.7104 19.9532 16.6738 20.0643 16.6738C20.1755 16.6738 20.2604 16.7104 20.2604 16.7552Z" fill="#DA840D"/>
<path d="M21.6203 16.2953C21.6203 16.3566 21.5378 16.4062 21.4379 16.4062C21.338 16.4062 21.2556 16.3566 21.2556 16.2953C21.2556 16.2339 21.338 16.1855 21.4379 16.1855C21.5378 16.1855 21.6203 16.2351 21.6203 16.2953Z" fill="#DA840D"/>
<path d="M21.4032 17.0831C21.3924 17.1223 21.3682 17.1569 21.3343 17.1817C21.3004 17.2064 21.2587 17.2199 21.2159 17.2199C21.173 17.2199 21.1314 17.2064 21.0975 17.1817C21.0636 17.1569 21.0394 17.1223 21.0286 17.0831C21.0394 17.0439 21.0636 17.0092 21.0975 16.9845C21.1314 16.9597 21.173 16.9463 21.2159 16.9463C21.2587 16.9463 21.3004 16.9597 21.3343 16.9845C21.3682 17.0092 21.3924 17.0439 21.4032 17.0831Z" fill="#DA840D"/>
<path d="M22.9166 16.8556C22.9223 16.8829 22.9215 16.9111 22.9143 16.9381C22.9071 16.9652 22.8936 16.9903 22.8749 17.0119C22.8561 17.0334 22.8326 17.0507 22.8059 17.0626C22.7792 17.0745 22.7501 17.0807 22.7206 17.0807C22.6911 17.0807 22.6619 17.0745 22.6353 17.0626C22.6086 17.0507 22.585 17.0334 22.5663 17.0119C22.5475 16.9903 22.5341 16.9652 22.5269 16.9381C22.5196 16.9111 22.5188 16.8829 22.5245 16.8556C22.5178 16.8277 22.5179 16.7989 22.5246 16.7711C22.5313 16.7433 22.5446 16.7173 22.5635 16.695C22.5823 16.6727 22.6062 16.6547 22.6334 16.6423C22.6606 16.63 22.6904 16.6235 22.7206 16.6235C22.7508 16.6235 22.7806 16.63 22.8078 16.6423C22.835 16.6547 22.8589 16.6727 22.8777 16.695C22.8965 16.7173 22.9098 16.7433 22.9166 16.7711C22.9233 16.7989 22.9233 16.8277 22.9166 16.8556Z" fill="#DA840D"/>
<path d="M22.8066 15.8313C22.8066 15.8773 22.7442 15.9151 22.6655 15.9151C22.5869 15.9151 22.5244 15.8773 22.5244 15.8313C22.5244 15.7853 22.5869 15.7476 22.6655 15.7476C22.7442 15.7476 22.8066 15.7818 22.8066 15.8313Z" fill="#DA840D"/>
<path d="M24.0069 16.0745C24.0069 16.2573 23.9207 16.406 23.8146 16.406C23.7084 16.406 23.6235 16.2573 23.6235 16.0745C23.6235 15.8916 23.7084 15.7441 23.8146 15.7441C23.9207 15.7441 24.0069 15.8916 24.0069 16.0745Z" fill="#DA840D"/>
<path d="M24.4836 15.7394C24.4834 15.7566 24.4778 15.7733 24.4675 15.7875C24.4572 15.8017 24.4426 15.8127 24.4257 15.8192C24.4088 15.8256 24.3903 15.8272 24.3724 15.8237C24.3546 15.8202 24.3383 15.8118 24.3255 15.7995C24.3127 15.7872 24.304 15.7717 24.3005 15.7548C24.297 15.7379 24.299 15.7204 24.306 15.7045C24.313 15.6886 24.3249 15.6751 24.34 15.6655C24.3552 15.656 24.373 15.6509 24.3912 15.6509C24.4159 15.6512 24.4394 15.6606 24.4566 15.6772C24.4739 15.6938 24.4836 15.7161 24.4836 15.7394Z" fill="#DA840D"/>
<path d="M21.3369 15.4561C21.3369 15.541 21.2208 15.6107 21.0759 15.6107C20.931 15.6107 20.8162 15.541 20.8162 15.4561C20.8162 15.3712 20.9323 15.3027 21.0759 15.3027C21.2195 15.3027 21.3369 15.3712 21.3369 15.4561Z" fill="#DA840D"/>
<path d="M16.4415 14.6625C16.4415 14.7144 16.3504 14.7568 16.2368 14.7568C16.1231 14.7568 16.0332 14.7144 16.0332 14.6625C16.0332 14.6105 16.1244 14.5669 16.2368 14.5669C16.3491 14.5669 16.4415 14.6094 16.4415 14.6625Z" fill="#DA840D"/>
<path d="M17.6403 14.4723C17.6403 14.5254 17.5367 14.5667 17.4081 14.5667C17.2794 14.5667 17.1758 14.5254 17.1758 14.4723C17.1758 14.4192 17.2807 14.3779 17.4081 14.3779C17.5354 14.3779 17.6403 14.4157 17.6403 14.4723Z" fill="#DA840D"/>
<path d="M19.1489 14.7037C19.1489 14.7793 19.009 14.8406 18.8354 14.8406C18.6618 14.8406 18.522 14.7793 18.522 14.7037C18.522 14.6282 18.6618 14.5669 18.8354 14.5669C19.009 14.5669 19.1489 14.6282 19.1489 14.7037Z" fill="#DA840D"/>
<path d="M20.2602 14.4723C20.2604 14.4913 20.2547 14.5099 20.2437 14.5257C20.2328 14.5416 20.217 14.554 20.1986 14.5614C20.1801 14.5689 20.1597 14.5709 20.14 14.5674C20.1203 14.5638 20.1022 14.5548 20.0879 14.5415C20.0737 14.5282 20.0639 14.5111 20.0599 14.4926C20.0559 14.474 20.0578 14.4547 20.0654 14.4372C20.0731 14.4197 20.086 14.4047 20.1027 14.3941C20.1193 14.3836 20.1389 14.3779 20.159 14.3779C20.1722 14.3778 20.1854 14.3801 20.1976 14.3848C20.2099 14.3895 20.221 14.3964 20.2305 14.4052C20.2399 14.4139 20.2473 14.4244 20.2524 14.4359C20.2575 14.4475 20.2602 14.4598 20.2602 14.4723Z" fill="#DA840D"/>
<path d="M20.0594 15.2192C20.0594 15.2652 19.9632 15.303 19.8459 15.303C19.7285 15.303 19.6323 15.2652 19.6323 15.2192C19.6323 15.1732 19.7285 15.1343 19.8459 15.1343C19.9632 15.1343 20.0594 15.172 20.0594 15.2192Z" fill="#DA840D"/>
<path d="M21.7277 14.4312C21.7284 14.4584 21.7205 14.4852 21.7051 14.5081C21.6896 14.5311 21.6673 14.5492 21.6409 14.5601C21.6145 14.571 21.5852 14.5742 21.5569 14.5693C21.5286 14.5645 21.5024 14.5517 21.4818 14.5327C21.4611 14.5137 21.447 14.4894 21.4411 14.4627C21.4352 14.4361 21.4378 14.4084 21.4486 14.3832C21.4595 14.358 21.478 14.3364 21.5019 14.3212C21.5258 14.306 21.554 14.2979 21.5828 14.2979C21.6207 14.2975 21.6571 14.3114 21.6843 14.3363C21.7114 14.3613 21.727 14.3954 21.7277 14.4312Z" fill="#DA840D"/>
<path d="M22.5243 14.9878C22.5243 15.0102 22.4494 15.0291 22.3582 15.0291C22.2671 15.0291 22.1921 15.0102 22.1921 14.9878C22.1921 14.9654 22.2671 14.9453 22.3582 14.9453C22.4494 14.9453 22.5243 14.9642 22.5243 14.9878Z" fill="#DA840D"/>
<path d="M23.0427 14.7096C23.0458 14.7219 23.0447 14.7349 23.0397 14.7467C23.0346 14.7585 23.0258 14.7685 23.0145 14.7754C23.0031 14.7822 22.9898 14.7856 22.9764 14.785C22.9629 14.7844 22.95 14.7798 22.9394 14.772C22.9288 14.7641 22.9211 14.7534 22.9172 14.7412C22.9134 14.729 22.9137 14.7159 22.918 14.7039C22.9224 14.6919 22.9306 14.6814 22.9415 14.674C22.9524 14.6665 22.9655 14.6625 22.979 14.6624C22.994 14.661 23.009 14.6651 23.0208 14.6739C23.0327 14.6827 23.0405 14.6955 23.0427 14.7096Z" fill="#DA840D"/>
<path d="M22.5246 14.9878C22.5217 15.0134 22.511 15.0376 22.4939 15.0576C22.4767 15.0776 22.4538 15.0925 22.4279 15.1004C22.402 15.1084 22.3742 15.1091 22.3479 15.1025C22.3216 15.0958 22.2979 15.0821 22.2796 15.063C22.2613 15.044 22.2493 15.0203 22.245 14.9949C22.2406 14.9695 22.2442 14.9434 22.2551 14.9199C22.2661 14.8963 22.2841 14.8763 22.3069 14.8622C22.3296 14.8481 22.3562 14.8405 22.3835 14.8403C22.403 14.8412 22.4221 14.8458 22.4398 14.8537C22.4575 14.8616 22.4733 14.8727 22.4864 14.8864C22.4995 14.9001 22.5096 14.9161 22.5162 14.9335C22.5227 14.9509 22.5256 14.9694 22.5246 14.9878Z" fill="#DA840D"/>
<path d="M23.3249 14.7506C23.3249 14.8001 23.2475 14.8403 23.1526 14.8403C23.0577 14.8403 22.979 14.8001 22.979 14.7506C22.979 14.701 23.0564 14.6621 23.1526 14.6621C23.2487 14.6621 23.3249 14.701 23.3249 14.7506Z" fill="#DA840D"/>
<path d="M21.0044 22.1231C20.9762 22.0212 20.9103 21.9322 20.8187 21.8721C20.7272 21.812 20.6159 21.7847 20.5049 21.7952C19.7557 21.8459 19.6932 23.0316 19.9567 23.5495C20.0352 23.6068 20.1338 23.6336 20.2325 23.6244C20.3312 23.6152 20.4224 23.5706 20.4875 23.4999C20.7272 23.2463 20.8034 22.8794 20.8883 22.5561C20.9299 22.413 20.9686 22.2686 21.0044 22.1231Z" fill="#EEBE30"/>
<path d="M26.5664 15.9623C26.3059 15.8672 26.0656 15.7285 25.8571 15.5529C25.608 15.3247 25.3783 15.0781 25.1703 14.8156C24.8594 14.4546 24.4073 14.313 23.9328 14.2599C23.4046 14.1998 22.8589 14.3107 22.3269 14.2847C22.0416 14.2774 21.762 14.2075 21.5102 14.0806C21.2604 13.9461 21.0644 13.7267 20.8508 13.5367C20.4325 13.1828 19.9018 13.1828 19.3736 13.1026C19.0237 13.0442 18.6697 13.0099 18.3146 12.9999C17.9512 12.9917 17.3156 12.987 17.0721 13.3137C16.8024 13.4317 16.7074 13.7455 16.6463 14.0098C16.6118 14.2279 16.557 14.4426 16.4827 14.6516C16.3717 14.8893 16.2001 15.0972 15.9832 15.2568C15.5074 15.6308 14.9192 15.8314 14.381 16.0921C13.9439 16.3033 13.4082 16.6029 13.1734 17.0265C13.0323 17.2801 13.0486 17.7143 13.2983 17.9019C13.6068 18.126 13.8415 17.7037 13.9077 17.4901C13.9689 17.2966 13.9914 17.0996 14.1575 16.9545C14.3812 16.771 14.6472 16.6393 14.9342 16.5699C15.1752 16.5062 15.4337 16.5062 15.671 16.4366C15.9558 16.3353 16.2237 16.1958 16.4664 16.0225C16.7512 15.8432 17.0284 15.6686 17.3668 15.5907C17.6478 15.5293 18.0823 15.5388 18.3034 15.7417C18.4246 15.8804 18.5289 16.0316 18.6143 16.1924C18.7282 16.3423 18.8791 16.4638 19.0539 16.5463C19.406 16.7363 19.8094 16.82 20.1778 16.9923C20.3009 17.0528 20.4071 17.1401 20.4875 17.2471C20.4999 17.2648 20.5112 17.2825 20.5224 17.3014C20.5315 17.3147 20.5398 17.3285 20.5474 17.3427C20.9495 18.0434 20.4437 18.7855 20.4575 19.5252C20.4575 19.924 20.7634 20.5764 21.2804 20.2567C21.3154 20.2354 21.3479 20.2118 21.3803 20.1882C21.439 19.6715 21.4865 19.1418 21.6763 18.6546C21.8548 18.2015 22.0984 17.7827 22.0721 17.2837C22.0572 17.0088 21.9185 16.7563 21.8848 16.485C21.8374 16.1074 22.197 15.9364 22.5204 15.862C22.9819 15.746 23.471 15.7776 23.9116 15.9517C24.7407 16.2738 25.4101 16.938 26.3317 17.0477C26.6963 17.0914 27.2245 17.0371 27.3694 16.6607C27.5142 16.2844 26.8262 16.0673 26.5664 15.9623Z" fill="#EEBE30"/>
<path opacity="0.5" d="M21.4927 16.4545C21.4549 16.3273 21.385 16.2107 21.2891 16.1145C21.1932 16.0184 21.0741 15.9456 20.942 15.9023C20.7522 15.8551 20.4525 15.9743 20.4762 16.1914C20.4766 16.1957 20.4779 16.2 20.48 16.2038C20.4821 16.2077 20.4851 16.2111 20.4887 16.2138C20.3638 16.4651 20.726 16.8981 20.8508 17.0821C20.9423 17.1999 21 17.3381 21.0182 17.4832C21.0394 17.6708 20.9757 17.856 20.9945 18.0413C21.0019 18.1238 21.0681 18.4766 21.2442 18.335C21.4453 18.1746 21.4665 17.8112 21.5077 17.5823C21.5908 17.2099 21.5857 16.8248 21.4927 16.4545Z" fill="white"/>
<path opacity="0.5" d="M25.1244 15.233C24.9203 14.913 24.5947 14.6784 24.2141 14.577C23.8295 14.472 22.9066 14.3588 22.8092 14.8909C22.8084 14.9016 22.8112 14.9123 22.8173 14.9214C22.8234 14.9306 22.8323 14.9376 22.8429 14.9416C22.8676 14.9586 22.8894 14.9788 22.9079 15.0018C22.9131 15.0114 22.9214 15.0192 22.9316 15.0242C22.9417 15.0276 22.9527 15.0276 22.9628 15.0242C23.0341 15.0859 23.1196 15.1311 23.2126 15.1563C23.4415 15.2042 23.6749 15.2303 23.9094 15.2342C24.2341 15.2637 24.4151 15.3958 24.6412 15.6011C24.766 15.7191 25.1082 15.9668 25.2843 15.7792C25.4191 15.6471 25.1981 15.3415 25.1244 15.233Z" fill="white"/>
<path opacity="0.5" d="M14.0265 16.715C13.9717 16.7085 13.9164 16.7085 13.8616 16.715C13.8618 16.7126 13.8615 16.7103 13.8606 16.7081C13.8597 16.7059 13.8583 16.704 13.8565 16.7024C13.8547 16.7008 13.8526 16.6996 13.8502 16.6989C13.8478 16.6982 13.8453 16.6981 13.8429 16.6984C13.7516 16.7122 13.665 16.7458 13.5898 16.7965C13.5146 16.8473 13.4529 16.9139 13.4096 16.991C13.3796 17.05 13.3209 17.2565 13.4495 17.2671C13.5782 17.2777 13.6793 17.1491 13.7517 17.0819C13.8567 16.9795 13.9559 16.872 14.0489 16.7598C14.0517 16.7556 14.0533 16.7508 14.0536 16.7459C14.0539 16.741 14.0529 16.736 14.0506 16.7316C14.0484 16.7271 14.045 16.7233 14.0408 16.7203C14.0366 16.7174 14.0316 16.7156 14.0265 16.715Z" fill="white"/>
<path opacity="0.5" d="M29.0892 23.5175C28.9785 23.4952 28.8643 23.4942 28.7532 23.5144C28.6421 23.5347 28.5364 23.5758 28.4424 23.6353C28.3485 23.6948 28.2681 23.7715 28.2061 23.8609C28.1441 23.9503 28.1017 24.0506 28.0814 24.1557C28.0807 24.1595 28.0809 24.1634 28.0819 24.1671C28.0829 24.1709 28.0848 24.1743 28.0875 24.1772C28.0901 24.1802 28.0934 24.1825 28.0971 24.1841C28.1008 24.1857 28.1048 24.1865 28.1089 24.1864C28.1095 24.1943 28.1095 24.2022 28.1089 24.21C28.0652 24.3941 27.8342 24.479 27.6881 24.5569C27.5794 24.6135 27.467 24.6642 27.3547 24.7161C26.98 24.8955 26.3906 25.1267 26.2745 25.6021C26.2726 25.6073 26.2725 25.6129 26.274 25.6182C26.2756 25.6234 26.2788 25.6281 26.2832 25.6316C26.508 25.7779 26.7665 25.5597 26.9426 25.4228C27.2979 25.1568 27.7146 24.9737 28.1589 24.8884C28.6509 24.7869 29.5687 24.8176 29.746 24.1805C29.8534 23.7853 29.3777 23.5659 29.0892 23.5175Z" fill="white"/>
<path d="M21.0407 14.3673C20.997 14.3095 20.8859 14.1856 20.8109 14.1774C20.7685 14.1774 20.7523 14.0971 20.7123 14.1089C20.6723 14.1207 20.6111 14.1502 20.5562 14.1089C20.5378 14.0927 20.5182 14.0777 20.4975 14.0641C20.486 14.0565 20.4729 14.0514 20.4591 14.0491C20.4453 14.0469 20.4311 14.0476 20.4176 14.0511C20.3826 14.0641 20.3689 14.1137 20.3264 14.0818C20.284 14.0499 20.1828 14.0983 20.1578 14.1455C20.1494 14.1585 20.1427 14.1723 20.1379 14.1868C19.9893 14.2069 19.8394 14.4228 19.7832 14.523C19.7307 14.6195 19.7061 14.7275 19.712 14.8358C19.718 14.9442 19.7542 15.0492 19.8169 15.1401C19.953 15.3595 20.2303 15.389 20.475 15.3961C20.5715 15.4066 20.6692 15.3986 20.7622 15.3725C20.8483 15.3368 20.9229 15.2802 20.9783 15.2085C21.2255 14.9206 21.273 14.6705 21.0407 14.3673Z" fill="#48264C"/>
<path d="M21.0409 14.3675C20.9983 14.3108 20.9479 14.2596 20.891 14.2153C20.8962 14.4103 20.8296 14.6009 20.7025 14.7545C20.5754 14.9082 20.3957 15.0154 20.1942 15.0577C20.0521 15.0872 19.9045 15.0827 19.7646 15.0447C19.7796 15.0789 19.7971 15.112 19.8171 15.1438C19.9532 15.3632 20.2304 15.3927 20.4752 15.3998C20.5716 15.4104 20.6693 15.4024 20.7624 15.3762C20.8485 15.3406 20.923 15.284 20.9784 15.2122C21.2257 14.9208 21.2732 14.6707 21.0409 14.3675Z" fill="#300D33"/>
<path d="M21.2605 26.1105C21.2203 26.0131 21.1556 25.9264 21.0719 25.858C21.0582 25.7848 21.0407 25.7129 21.0245 25.6397C21.0232 25.6326 21.0202 25.6258 21.0158 25.6199C21.0113 25.614 21.0055 25.6091 20.9988 25.6056C20.9921 25.6021 20.9846 25.6 20.977 25.5996C20.9693 25.5992 20.9617 25.6004 20.9546 25.6032C20.8422 25.6527 20.8172 25.589 20.7398 25.5312C20.7274 25.524 20.7131 25.5202 20.6986 25.5202C20.684 25.5202 20.6697 25.524 20.6573 25.5312C20.5325 25.6114 20.4001 25.4215 20.3027 25.5312C20.2457 25.6139 20.1827 25.6927 20.1141 25.7671C20.0331 25.8156 19.9584 25.873 19.8919 25.9382C19.844 25.9784 19.802 26.0244 19.767 26.0751C19.7529 26.0964 19.7399 26.1185 19.7283 26.1411C19.7183 26.1624 19.7095 26.1848 19.702 26.206C19.7015 26.2084 19.7015 26.2108 19.702 26.2131C19.6515 26.3672 19.6546 26.5326 19.7108 26.685C19.8057 26.9575 20.1054 27.0543 20.3739 27.1168C20.4777 27.1506 20.5877 27.1642 20.6973 27.1569C20.8021 27.1366 20.8994 27.0906 20.9795 27.0236C21.3242 26.7641 21.4391 26.4986 21.2605 26.1105Z" fill="#48264C"/>
<path d="M21.2607 26.1104C21.2288 26.0382 21.1868 25.9704 21.1358 25.9087C21.0918 26.1255 20.9692 26.3211 20.7892 26.4618C20.6092 26.6026 20.383 26.6798 20.1493 26.6803C19.984 26.6806 19.8212 26.6416 19.676 26.567C19.6839 26.607 19.6948 26.6464 19.7085 26.685C19.8034 26.9575 20.1031 27.0542 20.3716 27.1168C20.4754 27.1505 20.5854 27.1642 20.695 27.1569C20.7998 27.1366 20.8971 27.0906 20.9772 27.0236C21.3244 26.764 21.4393 26.4986 21.2607 26.1104Z" fill="#300D33"/>
<path d="M19.0028 14.1618C18.9641 14.0898 18.8642 13.9329 18.7818 13.9105C18.7393 13.8999 18.7393 13.8256 18.6981 13.8185C18.6856 13.7123 18.6344 13.6014 18.5033 13.6238C18.4733 13.6238 18.3934 13.7029 18.3622 13.658C18.3469 13.6316 18.3221 13.6111 18.2923 13.6002C18.2311 13.5778 18.1774 13.6285 18.1424 13.6675C18.0837 13.7324 18.0088 13.6368 17.9326 13.6675C17.8962 13.6878 17.8664 13.7174 17.8468 13.7528C17.8272 13.7882 17.8184 13.8281 17.8215 13.868C17.8215 13.8751 17.8215 13.8798 17.8215 13.8869C17.7272 13.9544 17.6432 14.0338 17.5717 14.1229C17.4944 14.2211 17.4461 14.337 17.4316 14.4586C17.4171 14.5803 17.437 14.7034 17.4893 14.8154C17.5992 15.0832 17.9039 15.1693 18.1749 15.2153C18.2771 15.2425 18.3839 15.2513 18.4896 15.2413C18.5926 15.2157 18.6868 15.1653 18.763 15.095C19.1015 14.8107 19.2014 14.5405 19.0028 14.1618Z" fill="#48264C"/>
<path d="M19.0028 14.1617C18.9653 14.0912 18.9187 14.0255 18.8642 13.9658C18.833 14.1855 18.7218 14.388 18.5498 14.5387C18.3777 14.6894 18.1556 14.7788 17.9214 14.7917C17.7569 14.7997 17.593 14.7689 17.4443 14.702C17.4543 14.7421 17.4672 14.7816 17.483 14.82C17.5929 15.0878 17.8976 15.1739 18.1686 15.2199C18.2732 15.2463 18.3821 15.2535 18.4895 15.2411C18.5925 15.2155 18.6868 15.1651 18.763 15.0949C19.1014 14.8105 19.2013 14.5404 19.0028 14.1617Z" fill="#300D33"/>
<path d="M23.8592 15.1154C23.8205 15.0246 23.7144 14.8252 23.6195 14.7922C23.5658 14.7745 23.5683 14.6671 23.5133 14.6742C23.4384 14.6813 23.3672 14.7001 23.3085 14.6329C23.29 14.6061 23.2695 14.5805 23.2474 14.5562C23.2352 14.5424 23.2199 14.5314 23.2026 14.5241C23.1853 14.5167 23.1664 14.5132 23.1475 14.5137C23.0975 14.522 23.0638 14.5857 23.0226 14.5291C22.9639 14.4536 22.8303 14.5102 22.7828 14.5668C22.7681 14.582 22.7552 14.5986 22.7441 14.6164C22.5443 14.601 22.2808 14.8523 22.1772 14.9703C22.0783 15.0873 22.0127 15.2261 21.9865 15.3737C21.9603 15.5213 21.9743 15.6728 22.0273 15.8138C22.1347 16.1501 22.4881 16.2716 22.8028 16.353C22.9228 16.3936 23.0502 16.4108 23.1774 16.4037C23.3019 16.3799 23.4172 16.3244 23.5108 16.2433C23.9304 15.9177 24.0703 15.5956 23.8592 15.1154Z" fill="#48264C"/>
<path d="M23.8592 15.1151C23.8214 15.0266 23.7719 14.943 23.7118 14.8662C23.6631 15.127 23.5193 15.3635 23.3054 15.5346C23.0914 15.7057 22.8208 15.8006 22.5405 15.8029C22.3463 15.8017 22.1557 15.7529 21.9873 15.6614C21.9957 15.7113 22.0078 15.7606 22.0235 15.8088C22.1309 16.1451 22.4843 16.2666 22.799 16.348C22.919 16.3886 23.0464 16.4058 23.1736 16.3987C23.2982 16.3749 23.4134 16.3194 23.507 16.2383C23.9304 15.9174 24.0702 15.5953 23.8592 15.1151Z" fill="#300D33"/>
<path d="M23.6757 25.1019C23.627 24.9969 23.4984 24.768 23.3848 24.7314C23.3198 24.7114 23.3198 24.5863 23.2599 24.5934C23.1712 24.6028 23.0863 24.6252 23.0102 24.5486C22.9877 24.5173 22.9626 24.4877 22.9352 24.4601C22.9195 24.4438 22.9001 24.4312 22.8785 24.423C22.8569 24.4148 22.8336 24.4114 22.8104 24.4129C22.7504 24.4223 22.7104 24.4955 22.6568 24.4318C22.5843 24.3445 22.4257 24.4117 22.3683 24.4766C22.3511 24.4949 22.3357 24.5147 22.3221 24.5356C22.0823 24.5191 21.7689 24.814 21.6453 24.9461C21.5286 25.08 21.4514 25.2407 21.4216 25.4118C21.3917 25.5829 21.4103 25.7585 21.4754 25.9206C21.609 26.3076 22.0349 26.4433 22.4132 26.5329C22.5609 26.5805 22.7172 26.5994 22.8728 26.5884C23.0208 26.5603 23.1583 26.4955 23.2711 26.4008C23.7657 26.0256 23.928 25.6505 23.6757 25.1019Z" fill="#48264C"/>
<path d="M23.6759 25.1021C23.6296 24.9995 23.5692 24.9031 23.4961 24.8154C23.4333 25.1222 23.2599 25.399 23.0053 25.5984C22.7507 25.7978 22.4307 25.9076 22.0999 25.9091C21.8671 25.9094 21.6378 25.8547 21.4331 25.7498C21.443 25.8079 21.4581 25.8651 21.4781 25.9209C21.6117 26.3078 22.0375 26.4435 22.4159 26.5332C22.5635 26.5808 22.7199 26.5996 22.8754 26.5886C23.0234 26.5605 23.1609 26.4958 23.2738 26.401C23.7658 26.0259 23.9281 25.6507 23.6759 25.1021Z" fill="#300D33"/>
<path d="M18.0286 24.2525C18.0286 24.2525 18.362 24.1345 18.5556 24.551C18.7492 24.9674 18.8191 25.3768 19.0127 25.5715C19.0659 25.6152 19.1078 25.6698 19.1353 25.7311C19.1628 25.7924 19.1751 25.8589 19.1712 25.9254C19.1712 25.9254 18.6255 25.6434 18.4857 25.4936C18.2781 25.29 18.1005 25.0611 17.9574 24.8129C17.8001 24.5132 17.689 24.2324 17.689 24.2324L18.0286 24.2525Z" fill="#5F825C"/>
<path d="M17.8978 24.1791C17.8978 24.1791 17.9814 23.8523 17.5231 23.719C17.0648 23.5857 16.624 23.5656 16.3992 23.4063C16.3466 23.361 16.2837 23.3277 16.2152 23.3091C16.1468 23.2905 16.0747 23.287 16.0046 23.299C16.0046 23.299 16.363 23.7791 16.5366 23.8889C16.7748 24.0596 17.036 24.1996 17.3133 24.3053C17.6455 24.4233 17.954 24.4917 17.954 24.4917L17.8978 24.1791Z" fill="#5F825C"/>
<path d="M17.8327 24.3388C17.8327 24.3388 18.4483 24.7541 18.4308 25.3192C18.4133 25.8843 18.4133 26.1663 18.0562 26.4813C17.699 26.7963 17.0197 26.8139 16.6676 26.9626C16.3154 27.1112 15.8946 27.2457 15.7934 27.3283C15.6923 27.4109 15.4775 27.4947 15.1615 27.3283C14.8456 27.162 14.662 27.1797 14.722 26.7137C14.8116 26.114 14.9647 25.5243 15.179 24.9535C15.3539 24.5217 15.5087 24.189 16.0032 24.0568C16.4773 23.9417 16.9782 23.9765 17.4293 24.1559C17.7402 24.3058 17.8327 24.3388 17.8327 24.3388Z" fill="#ED6366"/>
<path d="M14.7958 26.2643C15.0752 26.3634 15.3714 26.4142 15.6699 26.4141C16.8937 26.4141 17.8852 25.6012 17.8852 24.5996C17.8855 24.517 17.8788 24.4346 17.8652 24.353C17.9976 24.4533 18.4409 24.8249 18.4259 25.3063C18.4084 25.8702 18.4084 26.1534 18.0513 26.4684C17.6941 26.7834 17.0148 26.801 16.6627 26.9497C16.3105 27.0983 15.8897 27.2328 15.7885 27.3154C15.6874 27.398 15.4726 27.4818 15.1567 27.3154C14.8407 27.1491 14.6572 27.1656 14.7171 26.7008C14.7358 26.5781 14.762 26.4282 14.7958 26.2643Z" fill="#C73A54"/>
<path d="M18.1064 25.5776C18.19 25.5883 18.21 25.4526 18.2162 25.3535C18.2226 25.3287 18.2226 25.3028 18.2162 25.278V25.2697C18.2162 25.2603 18.2025 25.2579 18.2013 25.2697C18.1984 25.2699 18.1957 25.2708 18.1933 25.2722C18.1909 25.2737 18.1889 25.2756 18.1875 25.278C18.1725 25.3098 17.9902 25.5635 18.1064 25.5776Z" fill="#E7D8C8"/>
<path d="M17.9316 25.0657C17.9328 25.0672 17.9343 25.0683 17.936 25.0692C17.9377 25.07 17.9397 25.0704 17.9416 25.0704C17.9435 25.0704 17.9455 25.07 17.9472 25.0692C17.9489 25.0683 17.9504 25.0672 17.9516 25.0657C17.9761 25.0468 17.996 25.0231 18.0098 24.9962C18.0236 24.9693 18.031 24.9398 18.0315 24.91C18.0382 24.8938 18.042 24.8766 18.0427 24.8592C18.043 24.8567 18.0425 24.8542 18.0414 24.852C18.0403 24.8497 18.0386 24.8478 18.0365 24.8463C18.0343 24.8449 18.0318 24.844 18.0292 24.8438C18.0266 24.8436 18.0239 24.844 18.0215 24.8451C18.0215 24.8451 18.0065 24.8451 18.0078 24.8451C17.972 24.8695 17.9454 24.904 17.9317 24.9437C17.918 24.9833 17.918 25.026 17.9316 25.0657Z" fill="#E7D8C8"/>
<path d="M17.5705 24.7974C17.6429 24.8516 17.6767 24.7278 17.6954 24.6464C17.7061 24.6217 17.7136 24.596 17.7179 24.5697C17.7182 24.5667 17.7175 24.5637 17.7158 24.5611C17.7142 24.5585 17.7118 24.5565 17.7089 24.5553C17.7059 24.5542 17.7027 24.5539 17.6996 24.5546C17.6965 24.5552 17.6937 24.5568 17.6916 24.5591C17.6567 24.598 17.4993 24.7478 17.5705 24.7974Z" fill="#E7D8C8"/>
<path d="M17.5242 25.3238C17.5252 25.325 17.5266 25.326 17.5281 25.3267C17.5296 25.3274 17.5312 25.3277 17.5329 25.3277C17.5346 25.3277 17.5363 25.3274 17.5378 25.3267C17.5393 25.326 17.5406 25.325 17.5417 25.3238C17.5655 25.3019 17.5865 25.2773 17.6041 25.2506C17.6476 25.2046 17.6746 25.1468 17.6815 25.0855C17.6815 25.076 17.6715 25.0642 17.6603 25.0689L17.6378 25.0831C17.5579 25.1385 17.463 25.2459 17.5242 25.3238Z" fill="#E7D8C8"/>
<path d="M17.6494 25.8512C17.6956 25.8784 17.7231 25.8159 17.738 25.751C17.7585 25.7178 17.7704 25.6807 17.773 25.6424C17.7732 25.6399 17.7728 25.6375 17.7717 25.6352C17.7706 25.6329 17.7689 25.631 17.7667 25.6295C17.7646 25.6281 17.7621 25.6272 17.7594 25.627C17.7568 25.6268 17.7542 25.6272 17.7518 25.6283H17.7368C17.7368 25.6283 17.7368 25.6283 17.7368 25.6365C17.7039 25.6684 17.6781 25.7061 17.6606 25.7474C17.6481 25.7746 17.6157 25.8335 17.6494 25.8512Z" fill="#E7D8C8"/>
<path d="M17.8852 26.1434C17.9352 26.1741 17.9876 26.1304 18.0101 26.088C18.0224 26.059 18.0316 26.029 18.0376 25.9983C18.0524 25.9746 18.0614 25.9479 18.0638 25.9204C18.0668 25.9174 18.0684 25.9134 18.0684 25.9092C18.0684 25.9051 18.0668 25.9011 18.0638 25.898V25.8898C18.0638 25.8803 18.0476 25.8709 18.0376 25.8791C17.9964 25.9075 17.809 26.095 17.8852 26.1434Z" fill="#E7D8C8"/>
<path d="M17.4008 26.3065C17.4433 26.362 17.4845 26.3065 17.5132 26.2522C17.5308 26.2375 17.5448 26.2193 17.5543 26.1989C17.5638 26.1786 17.5685 26.1565 17.5681 26.1343C17.5681 26.1322 17.5675 26.1301 17.5664 26.1283C17.5654 26.1265 17.5639 26.1249 17.562 26.1238C17.5602 26.1226 17.5581 26.1219 17.5559 26.1217C17.5537 26.1214 17.5515 26.1217 17.5494 26.1225C17.4907 26.1437 17.3483 26.2381 17.4008 26.3065Z" fill="#E7D8C8"/>
<path d="M17.166 25.6236C17.2022 25.5823 17.2442 25.5457 17.2909 25.5151C17.2934 25.5132 17.2965 25.512 17.2998 25.5118C17.303 25.5115 17.3063 25.5122 17.3091 25.5137C17.3119 25.5153 17.3142 25.5176 17.3156 25.5203C17.3171 25.5231 17.3176 25.5262 17.3171 25.5292C17.3158 25.5468 17.3111 25.564 17.3034 25.58V25.5977C17.297 25.647 17.2753 25.6934 17.2409 25.731C17.2147 25.7593 17.1535 25.7735 17.1285 25.731C17.1036 25.6885 17.1435 25.6437 17.166 25.6236Z" fill="#E7D8C8"/>
<path d="M17.0961 25.2072C17.1061 25.2438 17.1561 25.2403 17.1811 25.2214C17.1978 25.2071 17.2113 25.1899 17.221 25.1707C17.2442 25.1438 17.2582 25.1109 17.261 25.0763C17.2611 25.0737 17.2605 25.071 17.2594 25.0687C17.2582 25.0663 17.2564 25.0642 17.2542 25.0626C17.252 25.0609 17.2495 25.0598 17.2467 25.0594C17.244 25.0589 17.2412 25.059 17.2385 25.0598C17.203 25.073 17.1713 25.094 17.1461 25.1211C17.1236 25.1412 17.0862 25.1742 17.0961 25.2072Z" fill="#E7D8C8"/>
<path d="M17.311 24.3259C17.3151 24.3247 17.3196 24.325 17.3235 24.3268C17.3275 24.3285 17.3306 24.3316 17.3322 24.3354C17.3416 24.3705 17.34 24.4075 17.3276 24.4419C17.3152 24.4762 17.2925 24.5064 17.2623 24.5288C17.2599 24.5305 17.2572 24.5316 17.2544 24.532C17.2515 24.5325 17.2485 24.5323 17.2457 24.5315C17.243 24.5307 17.2404 24.5293 17.2383 24.5274C17.2362 24.5255 17.2346 24.5232 17.2336 24.5206C17.2298 24.5123 17.2272 24.5036 17.2261 24.4946C17.2147 24.4616 17.2171 24.4257 17.2329 24.3943C17.2487 24.3629 17.2767 24.3384 17.311 24.3259Z" fill="#E7D8C8"/>
<path d="M16.8799 24.9746C16.9174 25.0041 16.9486 24.9746 16.9711 24.9275C16.9996 24.9006 17.0206 24.8674 17.0322 24.831C17.0437 24.7945 17.0455 24.7559 17.0373 24.7186C17.0356 24.7153 17.0329 24.7126 17.0296 24.7107C17.0263 24.7088 17.0224 24.7079 17.0185 24.708C16.9623 24.7151 16.9149 24.7894 16.8937 24.826C16.8724 24.8626 16.8325 24.9393 16.8799 24.9746Z" fill="#E7D8C8"/>
<path d="M16.8663 24.297C16.8736 24.2886 16.8815 24.2807 16.89 24.2734C16.8928 24.2716 16.8961 24.2704 16.8995 24.2701C16.9029 24.2698 16.9064 24.2703 16.9095 24.2716C16.9126 24.2729 16.9154 24.275 16.9174 24.2775C16.9195 24.2801 16.9208 24.2832 16.9213 24.2864C16.9248 24.3137 16.9217 24.3413 16.9121 24.3673C16.9026 24.3933 16.8869 24.4168 16.8663 24.4362C16.8665 24.4394 16.8665 24.4425 16.8663 24.4457C16.8625 24.4529 16.8568 24.4591 16.8497 24.4637C16.8427 24.4682 16.8345 24.471 16.826 24.4717C16.8174 24.4724 16.8089 24.471 16.801 24.4677C16.7932 24.4644 16.7865 24.4592 16.7814 24.4527C16.7277 24.4008 16.8039 24.3253 16.8663 24.297Z" fill="#E7D8C8"/>
<path d="M16.4417 24.7291C16.4666 24.6802 16.5061 24.6392 16.5553 24.6111C16.5581 24.6091 16.5615 24.608 16.5651 24.6079C16.5686 24.6078 16.572 24.6087 16.575 24.6105C16.578 24.6123 16.5803 24.6149 16.5817 24.6179C16.5831 24.621 16.5835 24.6243 16.5828 24.6276C16.5812 24.6496 16.5757 24.6711 16.5665 24.6913C16.5665 24.6984 16.5665 24.7055 16.5665 24.7114C16.5638 24.7375 16.558 24.7632 16.5491 24.7881C16.541 24.8121 16.5236 24.8323 16.5004 24.8447C16.4986 24.8476 16.4961 24.8501 16.493 24.8518C16.4899 24.8535 16.4864 24.8544 16.4829 24.8544C16.4793 24.8544 16.4758 24.8535 16.4727 24.8518C16.4697 24.8501 16.4671 24.8476 16.4654 24.8447C16.4167 24.8199 16.4317 24.7586 16.4417 24.7291Z" fill="#E7D8C8"/>
<path d="M16.3529 24.4437C16.3549 24.445 16.3573 24.4457 16.3598 24.4457C16.3622 24.4457 16.3646 24.445 16.3666 24.4437C16.3833 24.4287 16.3987 24.4125 16.4128 24.3953C16.4444 24.3705 16.471 24.3405 16.4915 24.3069C16.5001 24.2921 16.5035 24.2752 16.5015 24.2585V24.2502C16.5015 24.242 16.5015 24.2361 16.489 24.2396C16.4844 24.2343 16.4784 24.2301 16.4717 24.2274C16.4649 24.2248 16.4576 24.2237 16.4503 24.2243C16.3666 24.2255 16.2792 24.3859 16.3529 24.4437Z" fill="#E7D8C8"/>
<path d="M15.8484 24.5913C15.8734 24.6361 15.9321 24.5913 15.9533 24.5665C15.9873 24.5294 16.011 24.4848 16.022 24.4368C16.0307 24.4207 16.0354 24.4029 16.0357 24.3849C16.0361 24.3822 16.0359 24.3796 16.035 24.3771C16.0342 24.3745 16.0327 24.3722 16.0308 24.3703C16.0289 24.3684 16.0266 24.3669 16.024 24.3659C16.0213 24.365 16.0185 24.3646 16.0158 24.3648C15.9866 24.3687 15.9589 24.3794 15.9351 24.3958C15.9114 24.4123 15.8923 24.4341 15.8796 24.4592C15.8584 24.4934 15.8259 24.5512 15.8484 24.5913Z" fill="#E7D8C8"/>
<path d="M15.9721 25.0657C15.9871 25.1022 16.027 25.0845 16.042 25.0657C16.057 25.0468 16.0557 25.0409 16.062 25.0291C16.0867 25.0036 16.1042 24.9726 16.113 24.939C16.1217 24.9054 16.1213 24.8702 16.1119 24.8368C16.1111 24.8345 16.1097 24.8325 16.1078 24.8309C16.106 24.8292 16.1038 24.828 16.1013 24.8273C16.0989 24.8266 16.0963 24.8265 16.0939 24.8269C16.0914 24.8273 16.089 24.8283 16.087 24.8297C16.052 24.8597 16.0247 24.8968 16.007 24.9382C15.9921 24.9689 15.9546 25.0232 15.9721 25.0657Z" fill="#E7D8C8"/>
<path d="M16.4802 25.2693C16.4935 25.21 16.5284 25.157 16.5788 25.1195C16.581 25.1173 16.5839 25.1157 16.587 25.1148C16.5901 25.114 16.5934 25.1141 16.5965 25.1149C16.5996 25.1158 16.6024 25.1174 16.6046 25.1197C16.6067 25.122 16.6082 25.1248 16.6088 25.1278C16.6109 25.1497 16.6079 25.1719 16.6001 25.1927C16.5969 25.2187 16.5863 25.2435 16.5694 25.2643C16.5524 25.2851 16.5298 25.3011 16.5039 25.3106H16.4914C16.4884 25.311 16.4853 25.3107 16.4823 25.3098C16.4794 25.3089 16.4768 25.3073 16.4746 25.3053C16.4724 25.3032 16.4708 25.3007 16.4698 25.298C16.4688 25.2952 16.4685 25.2923 16.4689 25.2894L16.4802 25.2693Z" fill="#E7D8C8"/>
<path d="M16.8448 25.4087C16.8474 25.407 16.8504 25.4061 16.8535 25.4058C16.8566 25.4056 16.8597 25.4061 16.8626 25.4072C16.8654 25.4084 16.8679 25.4102 16.8698 25.4125C16.8718 25.4148 16.873 25.4176 16.8736 25.4205C16.8736 25.4205 16.8736 25.4205 16.8736 25.4287C16.8736 25.4948 16.8249 25.601 16.7487 25.6069C16.7466 25.6072 16.7445 25.6071 16.7425 25.6066C16.7404 25.6061 16.7385 25.6053 16.7369 25.604C16.7352 25.6028 16.7339 25.6013 16.7329 25.5995C16.7319 25.5978 16.7313 25.5959 16.7312 25.5939C16.7333 25.5567 16.7448 25.5206 16.7645 25.4884C16.7843 25.4562 16.8118 25.4289 16.8448 25.4087Z" fill="#E7D8C8"/>
<path d="M16.4167 25.6232C16.4323 25.6085 16.4499 25.5958 16.4691 25.5854C16.4791 25.5854 16.4966 25.5854 16.4966 25.5961C16.4941 25.6433 16.4737 25.6881 16.4391 25.7223C16.4248 25.7441 16.404 25.7613 16.3792 25.7718C16.3759 25.773 16.3722 25.7729 16.369 25.7716C16.3657 25.7703 16.3631 25.7678 16.3617 25.7648C16.3617 25.7648 16.3617 25.7565 16.3617 25.7518C16.361 25.7487 16.361 25.7455 16.3617 25.7424C16.3575 25.7196 16.3605 25.6962 16.3703 25.675C16.38 25.6538 16.3962 25.6358 16.4167 25.6232Z" fill="#E7D8C8"/>
<path d="M16.0883 25.292C16.0934 25.2917 16.0984 25.2932 16.1024 25.2963C16.1063 25.2994 16.1089 25.3038 16.1095 25.3086C16.1114 25.3187 16.1114 25.3291 16.1095 25.3392C16.1119 25.3564 16.1102 25.3739 16.1046 25.3904C16.0989 25.4069 16.0895 25.4221 16.077 25.4348C16.0604 25.4635 16.0346 25.4866 16.0034 25.5009C15.9959 25.5009 15.9871 25.5009 15.9834 25.4926C15.9559 25.4312 15.9984 25.2909 16.0883 25.292Z" fill="#E7D8C8"/>
<path d="M15.5252 25.2177C15.526 25.2202 15.5274 25.2224 15.5292 25.2244C15.531 25.2263 15.5332 25.2279 15.5356 25.229C15.5381 25.2301 15.5407 25.2307 15.5435 25.2308C15.5462 25.2309 15.5489 25.2304 15.5514 25.2295C15.5901 25.2124 15.6214 25.1833 15.6401 25.147C15.6587 25.1107 15.6636 25.0694 15.6538 25.0301C15.6526 25.0277 15.6509 25.0255 15.6488 25.0237C15.6467 25.022 15.6441 25.0206 15.6414 25.0199C15.6387 25.0191 15.6358 25.0189 15.633 25.0192C15.6302 25.0195 15.6275 25.0205 15.6251 25.0219C15.5969 25.0406 15.573 25.0648 15.5552 25.0927C15.5402 25.1099 15.5297 25.1301 15.5245 25.1518C15.5193 25.1735 15.5195 25.1961 15.5252 25.2177Z" fill="#E7D8C8"/>
<path d="M15.5798 25.6732C15.5797 25.6489 15.5865 25.6251 15.5998 25.6042C15.613 25.5834 15.632 25.5665 15.6548 25.5552C15.6575 25.554 15.6606 25.5536 15.6636 25.5538C15.6666 25.554 15.6696 25.5549 15.6721 25.5564C15.6747 25.5579 15.6769 25.5599 15.6784 25.5624C15.68 25.5649 15.6808 25.5677 15.681 25.5705C15.6844 25.594 15.6819 25.6179 15.6736 25.6402C15.6654 25.6626 15.6516 25.6828 15.6335 25.6991C15.6281 25.7062 15.6214 25.7122 15.6136 25.7168C15.6112 25.718 15.6086 25.7188 15.6059 25.719C15.6032 25.7193 15.6005 25.719 15.598 25.7182C15.5954 25.7175 15.593 25.7162 15.591 25.7145C15.5889 25.7129 15.5873 25.7108 15.5861 25.7086C15.5855 25.7073 15.5852 25.7059 15.5852 25.7044C15.5852 25.703 15.5855 25.7016 15.5861 25.7003C15.5827 25.6916 15.5806 25.6824 15.5798 25.6732Z" fill="#E7D8C8"/>
<path d="M16.7239 25.8443C16.7261 25.8441 16.7283 25.8444 16.7305 25.8451C16.7326 25.8458 16.7345 25.8469 16.7362 25.8483C16.7378 25.8498 16.7391 25.8515 16.74 25.8535C16.7409 25.8554 16.7414 25.8575 16.7414 25.8596C16.7412 25.8911 16.7316 25.9218 16.7137 25.9484C16.6958 25.9749 16.6703 25.9961 16.6402 26.0095C16.6361 26.0106 16.6318 26.0106 16.6277 26.0095H16.6102C16.6082 26.0098 16.6062 26.0097 16.6042 26.0092C16.6022 26.0087 16.6004 26.0078 16.5989 26.0066C16.5973 26.0054 16.5961 26.0038 16.5952 26.0021C16.5944 26.0003 16.594 25.9984 16.594 25.9965C16.6009 25.963 16.6163 25.9317 16.6389 25.9051C16.6616 25.8786 16.6907 25.8577 16.7239 25.8443Z" fill="#E7D8C8"/>
<path d="M16.8561 26.1733C16.8557 26.1765 16.8562 26.1797 16.8574 26.1826C16.8587 26.1856 16.8608 26.1882 16.8634 26.1902C16.866 26.1922 16.8691 26.1935 16.8724 26.1941C16.8757 26.1946 16.8791 26.1944 16.8823 26.1934H16.8911C16.8929 26.1945 16.8951 26.1952 16.8973 26.1952C16.8995 26.1952 16.9017 26.1945 16.9035 26.1934L16.9123 26.1851C16.9365 26.1691 16.9571 26.1486 16.9728 26.1249C16.9884 26.1012 16.9989 26.0747 17.0034 26.0471C17.0039 26.0444 17.0036 26.0416 17.0025 26.039C17.0015 26.0365 16.9997 26.0342 16.9974 26.0325C16.9951 26.0308 16.9924 26.0298 16.9895 26.0294C16.9866 26.0291 16.9836 26.0295 16.981 26.0306C16.941 26.0481 16.9079 26.077 16.8861 26.1131C16.8719 26.1311 16.8617 26.1515 16.8561 26.1733Z" fill="#E7D8C8"/>
<path d="M16.7826 26.5887C16.7984 26.5572 16.8215 26.5294 16.8501 26.5073C16.8622 26.4947 16.8756 26.4833 16.89 26.4731C16.8941 26.4718 16.8984 26.4718 16.9025 26.4731C16.905 26.4712 16.9081 26.47 16.9114 26.4698C16.9146 26.4695 16.9179 26.4702 16.9207 26.4717C16.9235 26.4733 16.9258 26.4756 16.9272 26.4783C16.9287 26.4811 16.9292 26.4842 16.9287 26.4873C16.9239 26.5152 16.9106 26.5412 16.8904 26.5622C16.8702 26.5831 16.8441 26.5981 16.8151 26.6052H16.8051C16.8025 26.6069 16.7994 26.6077 16.7962 26.6076C16.7931 26.6075 16.79 26.6065 16.7875 26.6047C16.785 26.6028 16.7832 26.6003 16.7823 26.5974C16.7815 26.5946 16.7816 26.5915 16.7826 26.5887Z" fill="#E7D8C8"/>
<path d="M16.3779 26.3857C16.379 26.3686 16.384 26.3519 16.3927 26.3369C16.4013 26.3218 16.4133 26.3087 16.4278 26.2984C16.4471 26.2796 16.4712 26.2658 16.4978 26.2583C16.509 26.2583 16.524 26.2583 16.524 26.2725C16.522 26.306 16.5089 26.3381 16.4865 26.3642C16.464 26.3902 16.4335 26.4089 16.3991 26.4176C16.3965 26.4179 16.3938 26.4177 16.3913 26.4171C16.3887 26.4164 16.3863 26.4153 16.3842 26.4138C16.3821 26.4122 16.3804 26.4103 16.3791 26.4081C16.3778 26.4059 16.3769 26.4035 16.3766 26.4011C16.3754 26.4001 16.3745 26.3989 16.3738 26.3975C16.3732 26.3961 16.373 26.3946 16.3731 26.3931C16.3732 26.3916 16.3737 26.3901 16.3745 26.3889C16.3754 26.3876 16.3765 26.3865 16.3779 26.3857Z" fill="#E7D8C8"/>
<path d="M16.0895 25.9022H16.0995C16.1035 25.9007 16.1078 25.9001 16.1121 25.9005C16.1164 25.9009 16.1206 25.9022 16.1242 25.9044C16.1279 25.9066 16.1309 25.9096 16.1331 25.9131C16.1353 25.9166 16.1366 25.9205 16.1369 25.9246C16.1294 25.9848 16.0757 26.0626 16.0121 26.0662C16.0021 26.0662 15.9883 26.0591 15.9896 26.0485C15.9891 26.0175 15.9983 25.9871 16.0161 25.961C16.0339 25.935 16.0594 25.9145 16.0895 25.9022Z" fill="#E7D8C8"/>
<path d="M15.8872 26.4492C15.9125 26.4142 15.9487 26.3874 15.9908 26.3725C15.9941 26.3713 15.9976 26.3708 16.0011 26.3713C16.0046 26.3717 16.0079 26.373 16.0107 26.375C16.0135 26.3771 16.0157 26.3798 16.017 26.3829C16.0183 26.3859 16.0188 26.3893 16.0183 26.3926C15.9952 26.4613 15.9451 26.5191 15.8784 26.5542C15.8756 26.5564 15.8722 26.5578 15.8687 26.5582C15.8651 26.5587 15.8614 26.5583 15.8581 26.5569C15.8547 26.5556 15.8519 26.5534 15.8497 26.5507C15.8476 26.5479 15.8463 26.5447 15.846 26.5412C15.8447 26.5239 15.8478 26.5066 15.855 26.4906C15.8621 26.4746 15.8732 26.4605 15.8872 26.4492Z" fill="#E7D8C8"/>
<path d="M15.5574 26.0716C15.5583 26.0478 15.5654 26.0246 15.578 26.0041C15.5907 25.9835 15.6085 25.9662 15.6298 25.9536C15.6398 25.9536 15.6586 25.9536 15.6623 25.9619C15.6669 25.9931 15.6619 26.0249 15.648 26.0535C15.634 26.0822 15.6117 26.1065 15.5836 26.1235C15.5801 26.1262 15.5758 26.1278 15.5712 26.1281C15.5667 26.1284 15.5622 26.1274 15.5582 26.1252C15.5543 26.1231 15.5512 26.1198 15.5492 26.1159C15.5473 26.112 15.5467 26.1077 15.5474 26.1034C15.5501 26.0926 15.5534 26.082 15.5574 26.0716Z" fill="#E7D8C8"/>
<path d="M15.2429 25.705C15.247 25.691 15.2557 25.6786 15.2679 25.6696L15.2754 25.6614C15.2841 25.6508 15.3079 25.6543 15.3079 25.6696C15.307 25.6954 15.2983 25.7204 15.2829 25.7416C15.282 25.7571 15.2777 25.7723 15.2702 25.7862C15.2626 25.8 15.2521 25.8121 15.2392 25.8218C15.2368 25.8233 15.2341 25.8241 15.2313 25.8242C15.2285 25.8244 15.2257 25.8238 15.2231 25.8226C15.2206 25.8215 15.2185 25.8197 15.2169 25.8174C15.2153 25.8152 15.2144 25.8127 15.2142 25.81C15.211 25.773 15.2211 25.736 15.2429 25.705Z" fill="#E7D8C8"/>
<path d="M15.5539 24.6856L15.5701 24.6655C15.5789 24.6573 15.5988 24.6655 15.5988 24.6738C15.6012 24.6973 15.5978 24.721 15.5889 24.7431C15.58 24.7652 15.5659 24.7851 15.5476 24.8012V24.8083C15.5457 24.81 15.5434 24.8112 15.5408 24.8118C15.5382 24.8124 15.5355 24.8123 15.533 24.8116C15.5304 24.8109 15.5281 24.8096 15.5263 24.8077C15.5245 24.8059 15.5232 24.8036 15.5227 24.8012C15.5214 24.7938 15.5214 24.7862 15.5227 24.7788C15.5176 24.7621 15.5179 24.7443 15.5234 24.7277C15.529 24.7112 15.5396 24.6965 15.5539 24.6856Z" fill="#E7D8C8"/>
<path d="M15.4038 26.63C15.4051 26.6322 15.407 26.634 15.4093 26.6353C15.4116 26.6366 15.4142 26.6373 15.4169 26.6373C15.4196 26.6373 15.4222 26.6366 15.4245 26.6353C15.4268 26.634 15.4287 26.6322 15.43 26.63L15.44 26.6194C15.4653 26.6007 15.4861 26.5772 15.5009 26.5503C15.5158 26.5234 15.5244 26.4939 15.5262 26.4636C15.5265 26.4603 15.5258 26.457 15.5242 26.4541C15.5227 26.4511 15.5202 26.4486 15.5173 26.4469C15.5143 26.4452 15.5108 26.4443 15.5073 26.4443C15.5038 26.4444 15.5004 26.4453 15.4974 26.4471C15.4437 26.4837 15.3801 26.5674 15.4038 26.63Z" fill="#E7D8C8"/>
<path d="M15.1056 26.3822C15.1086 26.3667 15.1169 26.3527 15.1293 26.3421C15.1341 26.3343 15.14 26.3272 15.1468 26.3209C15.1486 26.3184 15.151 26.3164 15.1539 26.3151C15.1567 26.3137 15.1598 26.313 15.163 26.313C15.1662 26.313 15.1693 26.3137 15.1721 26.3151C15.1749 26.3164 15.1774 26.3184 15.1792 26.3209C15.1891 26.3468 15.1891 26.3752 15.1792 26.4011C15.1726 26.4277 15.1579 26.4519 15.1368 26.4707C15.1347 26.4721 15.1324 26.4731 15.1299 26.4735C15.1274 26.4739 15.1248 26.4738 15.1224 26.4731C15.12 26.4724 15.1177 26.4712 15.1159 26.4695C15.1141 26.4679 15.1127 26.4659 15.1118 26.4636C15.1045 26.4513 15.1002 26.4376 15.0991 26.4236C15.0981 26.4095 15.1003 26.3954 15.1056 26.3822Z" fill="#E7D8C8"/>
<path d="M15.1566 26.7843C15.1593 26.7824 15.1625 26.7812 15.1659 26.7809C15.1692 26.7805 15.1726 26.781 15.1757 26.7824C15.1788 26.7837 15.1814 26.7858 15.1833 26.7884C15.1852 26.7911 15.1864 26.7941 15.1866 26.7973C15.1897 26.8257 15.1864 26.8545 15.1767 26.8816C15.167 26.9087 15.1512 26.9334 15.1304 26.9542C15.1304 26.9542 15.1304 26.9613 15.1304 26.9637C15.1291 26.9664 15.1271 26.9688 15.1244 26.9705C15.1217 26.9722 15.1186 26.9731 15.1154 26.9731C15.1122 26.9731 15.1091 26.9722 15.1064 26.9705C15.1037 26.9688 15.1016 26.9664 15.1004 26.9637C15.0921 26.9317 15.0929 26.8983 15.1028 26.8668C15.1127 26.8353 15.1312 26.8068 15.1566 26.7843Z" fill="#E7D8C8"/>
<path d="M15.6174 26.9578C15.6216 26.9566 15.626 26.9568 15.6301 26.9583C15.6342 26.9598 15.6376 26.9625 15.6399 26.966C15.6412 26.9679 15.6419 26.9702 15.6419 26.9725C15.6419 26.9748 15.6412 26.9771 15.6399 26.979C15.6403 26.9817 15.6403 26.9845 15.6399 26.9872C15.6397 27.0102 15.6339 27.0329 15.6228 27.0534C15.6118 27.0739 15.5958 27.0916 15.5762 27.1052C15.5739 27.1069 15.5713 27.108 15.5685 27.1086C15.5657 27.1091 15.5628 27.109 15.56 27.1084C15.5572 27.1077 15.5546 27.1064 15.5525 27.1046C15.5503 27.1029 15.5486 27.1006 15.5475 27.0981C15.5469 27.0958 15.5469 27.0934 15.5475 27.0911C15.5452 27.0913 15.5428 27.091 15.5407 27.0902C15.5385 27.0894 15.5366 27.0882 15.535 27.0866C15.5334 27.085 15.5323 27.0831 15.5316 27.081C15.531 27.0789 15.5308 27.0767 15.5312 27.0745C15.5344 27.0499 15.5439 27.0264 15.559 27.006C15.574 26.9857 15.594 26.9691 15.6174 26.9578Z" fill="#E7D8C8"/>
<path d="M16.2118 26.6733C16.2144 26.6717 16.2174 26.6707 16.2205 26.6705C16.2236 26.6702 16.2267 26.6707 16.2295 26.6719C16.2324 26.673 16.2349 26.6749 16.2368 26.6772C16.2387 26.6795 16.24 26.6822 16.2405 26.6851C16.2418 26.7209 16.2319 26.7563 16.2122 26.7869C16.1924 26.8175 16.1636 26.842 16.1294 26.8574C16.1234 26.8595 16.1167 26.8595 16.1106 26.8574L16.0957 26.8668C16.0934 26.8675 16.0911 26.8678 16.0887 26.8675C16.0864 26.8672 16.0841 26.8664 16.0822 26.8651C16.0802 26.8638 16.0786 26.8622 16.0775 26.8602C16.0764 26.8582 16.0757 26.856 16.0757 26.8538C16.081 26.8155 16.0962 26.779 16.1199 26.7475C16.1436 26.716 16.1752 26.6906 16.2118 26.6733Z" fill="#E7D8C8"/>
<path d="M17.2257 26.5918C17.2283 26.5863 17.2317 26.5811 17.2357 26.5764C17.2337 26.5679 17.2337 26.559 17.2357 26.5505C17.2498 26.5248 17.2727 26.5044 17.3006 26.4927C17.3106 26.4927 17.3244 26.4927 17.3281 26.4998C17.3331 26.5163 17.3331 26.5339 17.3281 26.5505C17.3242 26.5697 17.3127 26.5867 17.2961 26.5983C17.2794 26.6099 17.2588 26.6151 17.2382 26.613C17.2338 26.6114 17.2301 26.6084 17.2279 26.6045C17.2256 26.6007 17.2248 26.5961 17.2257 26.5918Z" fill="#E7D8C8"/>
</g>
<defs>
<clipPath id="clip0_430_615">
<rect width="24" height="16" fill="white" transform="translate(8 13)"/>
</clipPath>
</defs>
</svg>
