<svg width="40" height="41" viewBox="0 0 40 41" fill="none" xmlns="http://www.w3.org/2000/svg">
<ellipse cx="20" cy="20.5" rx="20" ry="20.5" fill="#F7F8F8"/>
<g clip-path="url(#clip0_430_629)">
<path d="M17.7883 13.6953C17.7883 13.6953 20.3884 10.6606 24.9568 12.3594C24.9568 12.3594 22.3552 16.7713 17.7883 13.6953Z" fill="#5C7732"/>
<path d="M17.7883 13.6953C17.7883 13.6953 20.3884 10.6606 24.9568 12.3594C24.9568 12.3594 20.5918 13.3709 17.7883 13.6953Z" fill="#69893E"/>
<path d="M16.8784 16.4825L17.7135 11L18.6893 11.5766L17.3495 16.6344C17.1886 16.5956 17.0311 16.5448 16.8784 16.4825Z" fill="#69893E"/>
<path d="M24.8742 22.9014C24.8742 26.8238 19.1587 29.9441 14.6744 29.9441C10.1901 29.9441 8 26.5216 8 22.5992C8 18.6768 11.637 15.4961 16.1228 15.4961C20.6086 15.4961 24.8742 18.9791 24.8742 22.9014Z" fill="#E87F18"/>
<path d="M15.6471 17.2167C16.6994 15.8999 19.4554 16.2789 20.9604 17.3966C22.4653 18.5143 22.2833 20.2116 21.2311 21.5254C20.1788 22.8393 18.1034 23 16.5985 21.8837C15.0935 20.7675 14.5918 18.535 15.6471 17.2167Z" fill="#E89B34"/>
<path d="M25.2412 29.7181C23.765 29.7181 22.322 29.2961 21.0946 28.5054C19.8673 27.7147 18.9106 26.5908 18.3457 25.2759C17.7808 23.961 17.633 22.5142 17.921 21.1183C18.209 19.7224 18.9198 18.4402 19.9636 17.4338C21.0074 16.4275 22.3373 15.7421 23.7851 15.4644C25.2329 15.1868 26.7336 15.3293 28.0974 15.8739C29.4612 16.4186 30.6268 17.3409 31.4469 18.5243C32.2671 19.7076 32.7048 21.0989 32.7048 22.5221C32.7028 24.43 31.9158 26.2592 30.5165 27.6083C29.1173 28.9574 27.22 29.7161 25.2412 29.7181Z" fill="#FFB506"/>
<path d="M25.2413 15.6953C23.8299 15.6953 22.4501 16.0988 21.2766 16.8549C20.103 17.6109 19.1883 18.6855 18.6482 19.9427C18.1081 21.1999 17.9668 22.5833 18.2421 23.918C18.5175 25.2527 19.1971 26.4787 20.1952 27.4409C21.1932 28.4031 22.4648 29.0584 23.8491 29.3239C25.2334 29.5894 26.6682 29.4531 27.9722 28.9324C29.2762 28.4116 30.3908 27.5297 31.1749 26.3983C31.959 25.2668 32.3776 23.9365 32.3776 22.5757C32.3756 20.7515 31.6231 19.0026 30.2852 17.7127C28.9473 16.4228 27.1333 15.6973 25.2413 15.6953ZM19.7017 19.7003C19.7216 19.6457 20.2676 18.2935 21.1332 18.0458C21.1984 18.028 21.2659 18.0191 21.3336 18.0193C21.435 18.0195 21.5351 18.0405 21.6274 18.0809C21.7197 18.1213 21.802 18.1802 21.8689 18.2537L24.3909 21.6762C24.4185 21.7116 24.5592 21.9033 24.498 22.0183C24.483 22.0439 24.4604 22.0646 24.4332 22.0777C24.4059 22.0909 24.3753 22.0958 24.345 22.0921C24.2396 22.0845 24.1362 22.0601 24.0392 22.0198L19.9097 20.6927C19.8435 20.6737 19.7824 20.641 19.7307 20.597C19.6789 20.5529 19.6377 20.4985 19.6099 20.4376C19.5182 20.2591 19.5488 20.007 19.7017 19.7003ZM19.2062 23.8291C18.6571 23.139 19.041 21.7367 19.0532 21.6762C19.1725 21.0643 19.483 20.9714 19.665 20.9714C19.7213 20.9716 19.7772 20.9811 19.8302 20.9994L23.981 22.2616C24.2349 22.3295 24.3542 22.4091 24.3557 22.5064C24.3557 22.645 24.1065 22.7276 24.0499 22.7438L19.9296 24.0842C19.8747 24.095 19.8189 24.1005 19.7629 24.1004C19.6546 24.1 19.5479 24.0752 19.4513 24.0281C19.3547 23.981 19.2708 23.9129 19.2062 23.8291ZM21.3336 27.1027C21.2657 27.1031 21.1982 27.0937 21.1332 27.0747C20.2676 26.8284 19.7216 25.4762 19.7002 25.4187C19.5472 25.112 19.5182 24.8598 19.6099 24.6814C19.6405 24.623 19.6836 24.5716 19.7363 24.5304C19.7891 24.4892 19.8502 24.4593 19.9158 24.4425L24.0453 23.108C24.1424 23.0682 24.2458 23.0443 24.3512 23.0373C24.3814 23.0335 24.4121 23.0385 24.4393 23.0516C24.4666 23.0647 24.4891 23.0854 24.5041 23.111C24.5653 23.226 24.4246 23.4177 24.397 23.4546L21.8735 26.8697C21.8061 26.944 21.7231 27.0037 21.6301 27.0449C21.537 27.0861 21.436 27.1078 21.3336 27.1086V27.1027ZM25.0776 28.0317C25.0806 28.0908 25.0715 28.1498 25.0507 28.2055C25.03 28.2611 24.9981 28.3123 24.9568 28.3561C24.8819 28.4242 24.7929 28.4762 24.6956 28.5087C24.5983 28.5412 24.495 28.5535 24.3925 28.5448C24.3188 28.544 24.2453 28.539 24.1722 28.5301C24.1126 28.5301 22.6091 28.4593 22.0922 27.7471C22.0153 27.6396 21.9715 27.5132 21.9661 27.3827C21.9607 27.2522 21.9938 27.1229 22.0616 27.0098L24.6249 23.6182C24.6509 23.5843 24.7779 23.4089 24.9094 23.4089C24.9269 23.4092 24.9442 23.4128 24.9602 23.4197C24.9762 23.4265 24.9907 23.4364 25.0027 23.4487C25.0623 23.5077 25.0853 23.63 25.0776 23.835V28.0317ZM25.0027 21.6674C24.9906 21.6795 24.9761 21.6891 24.9601 21.6957C24.9441 21.7023 24.9268 21.7057 24.9094 21.7057C24.784 21.7057 24.6509 21.5317 24.6249 21.4963L22.0708 18.1151C22.0027 18.0022 21.9692 17.8731 21.9741 17.7426C21.9789 17.6121 22.022 17.4857 22.0983 17.3778C22.6153 16.6656 24.1187 16.5963 24.1829 16.5948C24.2544 16.5857 24.3264 16.5808 24.3986 16.5801C24.5011 16.5713 24.6044 16.5837 24.7017 16.6162C24.799 16.6487 24.888 16.7007 24.9629 16.7688C25.0046 16.8132 25.0367 16.8652 25.0574 16.9216C25.0781 16.978 25.0871 17.0379 25.0838 17.0976V21.2884C25.0853 21.4919 25.0623 21.6172 25.0027 21.6733V21.6674ZM29.2025 18.0104C29.2702 18.0101 29.3377 18.0191 29.4029 18.037C30.2685 18.2847 30.8145 19.6369 30.8375 19.6944C30.9904 20.0011 31.0179 20.2532 30.9262 20.4317C30.896 20.4905 30.8531 20.5424 30.8003 20.5839C30.7475 20.6253 30.6861 20.6554 30.6203 20.672L26.4908 21.9992C26.3937 22.039 26.2903 22.0629 26.1849 22.0699C26.1547 22.0737 26.124 22.0687 26.0968 22.0556C26.0695 22.0425 26.047 22.0218 26.032 21.9962C25.9724 21.8812 26.1115 21.6895 26.1406 21.6526L28.6641 18.2552C28.731 18.1807 28.8137 18.1208 28.9065 18.0796C28.9994 18.0384 29.1003 18.0168 29.2025 18.0163V18.0104ZM25.3499 21.3666L25.4416 17.1773C25.458 17.0463 25.5127 16.9225 25.5994 16.8204C25.6861 16.7183 25.8011 16.6421 25.9311 16.6007C26.051 16.5655 26.1758 16.5481 26.3012 16.5491C27.1118 16.5491 28.0432 17.1699 28.083 17.1964C28.3888 17.3675 28.5571 17.5592 28.5892 17.7627C28.5987 17.8265 28.5941 17.8916 28.5756 17.9536C28.5572 18.0156 28.5253 18.0732 28.4821 18.1225L25.8439 21.4609C25.7139 21.6408 25.6099 21.7249 25.5212 21.7249C25.5036 21.7249 25.4862 21.7214 25.4701 21.7145C25.4541 21.7077 25.4397 21.6976 25.4279 21.6851C25.3664 21.59 25.339 21.4781 25.3499 21.3666ZM28.5892 27.3681C28.5571 27.5716 28.3858 27.7633 28.0784 27.9373C28.0432 27.9609 27.1118 28.5817 26.3012 28.5817C26.1758 28.5827 26.051 28.5653 25.9311 28.5301C25.8022 28.4895 25.6879 28.4145 25.6015 28.3137C25.5151 28.2129 25.4602 28.0906 25.4432 27.9609L25.3499 23.7628C25.3392 23.6517 25.3666 23.5403 25.4279 23.4457C25.4397 23.4332 25.4541 23.4231 25.4701 23.4163C25.4862 23.4094 25.5036 23.4059 25.5212 23.4059C25.6099 23.4059 25.7139 23.49 25.8454 23.6713L28.4852 27.0113C28.5276 27.0603 28.5588 27.1175 28.5767 27.179C28.5946 27.2405 28.5989 27.3049 28.5892 27.3681ZM30.8359 25.4335C30.8145 25.488 30.2685 26.8402 29.4044 27.0865C29.3389 27.1055 29.2709 27.1149 29.2025 27.1145C29.1014 27.114 29.0016 27.0928 28.9096 27.0524C28.8176 27.012 28.7355 26.9532 28.6687 26.88L26.1452 23.4575C26.1176 23.4221 25.9785 23.2304 26.0381 23.1154C26.0531 23.0898 26.0757 23.0692 26.1029 23.056C26.1301 23.0429 26.1608 23.0379 26.1911 23.0417C26.2965 23.0492 26.3999 23.0736 26.4969 23.1139L30.6264 24.4411C30.6898 24.4587 30.7487 24.4889 30.7993 24.5298C30.8499 24.5707 30.891 24.6213 30.92 24.6785C31.0179 24.8613 30.9889 25.1179 30.8359 25.4276V25.4335ZM30.7702 24.2125C30.7188 24.2118 30.6676 24.2063 30.6172 24.1963L26.4878 22.8603C26.4388 22.8456 26.1819 22.7615 26.1895 22.6229C26.1895 22.5241 26.3119 22.446 26.5658 22.3796L30.7197 21.1144C30.7687 21.0972 30.8205 21.0883 30.8726 21.0879C31.047 21.0879 31.359 21.1808 31.4844 21.7971C31.4997 21.8532 31.8836 23.2555 31.3315 23.9471C31.2649 24.029 31.1796 24.0951 31.0823 24.1401C30.9849 24.1851 30.8781 24.2079 30.7702 24.2066V24.2125Z" fill="#FFFFCF"/>
<path d="M25.2351 15.2954C21.1209 15.2954 17.7026 18.2593 17.7026 22.2259C17.7026 26.1926 20.7064 30 24.8236 30C28.9409 30 33.0015 26.5922 33.0015 22.627C33.0015 18.6619 29.3507 15.2954 25.2351 15.2954ZM25.2351 29.4514C23.8237 29.4502 22.4444 29.0456 21.2715 28.2887C20.0987 27.5317 19.185 26.4565 18.6459 25.1989C18.1068 23.9413 17.9667 22.5579 18.2431 21.2235C18.5195 19.8891 19.2001 18.6637 20.1988 17.7022C21.1976 16.7407 22.4696 16.0863 23.854 15.8218C25.2385 15.5573 26.6732 15.6946 27.9767 16.2162C29.2803 16.7378 30.3941 17.6204 31.1775 18.7523C31.9608 19.8842 32.3784 21.2147 32.3775 22.5754C32.3755 24.3996 31.6229 26.1485 30.2851 27.4384C28.9472 28.7284 27.1332 29.4539 25.2412 29.4558L25.2351 29.4514Z" fill="#F38E1C"/>
<path d="M24.9569 16.7628C24.8819 16.6947 24.7929 16.6427 24.6956 16.6101C24.5984 16.5776 24.4951 16.5653 24.3925 16.574C24.3204 16.5747 24.2484 16.5796 24.1769 16.5888C24.1126 16.5888 22.6092 16.6595 22.0922 17.3718C22.0159 17.4796 21.9729 17.6061 21.968 17.7366C21.9631 17.867 21.9967 17.9962 22.0647 18.109L24.625 21.5006C24.651 21.536 24.7779 21.71 24.9095 21.71C24.9269 21.7099 24.9441 21.7065 24.9601 21.6999C24.9762 21.6934 24.9907 21.6837 25.0027 21.6716C25.0624 21.6127 25.0853 21.4903 25.0777 21.2868V17.0916C25.081 17.0318 25.0721 16.972 25.0513 16.9155C25.0306 16.8591 24.9985 16.8072 24.9569 16.7628Z" fill="#FFB506"/>
<path d="M28.5891 17.7625C28.5569 17.559 28.3857 17.3673 28.0828 17.1962C28.0431 17.1697 27.1116 16.5489 26.301 16.5489C26.1757 16.5479 26.0509 16.5653 25.9309 16.6005C25.801 16.6418 25.6859 16.718 25.5992 16.8201C25.5126 16.9222 25.4579 17.046 25.4415 17.177L25.3497 21.3663C25.3389 21.4779 25.3663 21.5898 25.4277 21.6848C25.4395 21.6974 25.4539 21.7074 25.47 21.7143C25.4861 21.7212 25.5035 21.7247 25.521 21.7247C25.6097 21.7247 25.7137 21.6406 25.8437 21.4607L28.482 18.1222C28.5252 18.073 28.557 18.0154 28.5755 17.9534C28.5939 17.8914 28.5986 17.8263 28.5891 17.7625Z" fill="#FFB506"/>
<path d="M30.8375 19.7C30.8145 19.6425 30.2685 18.2903 29.4029 18.0426C29.2716 18.0065 29.1323 18.0073 29.0014 18.0449C28.8706 18.0826 28.7536 18.1554 28.6642 18.2549L26.1467 21.6715C26.1177 21.7084 25.9785 21.9001 26.0381 22.0151C26.0531 22.0407 26.0757 22.0614 26.1029 22.0745C26.1302 22.0876 26.1609 22.0926 26.1911 22.0888C26.2964 22.0818 26.3998 22.0579 26.497 22.0181L30.6264 20.6909C30.6923 20.6743 30.7537 20.6442 30.8064 20.6028C30.8592 20.5613 30.9021 20.5094 30.9323 20.4506C31.018 20.2589 30.9889 20.0067 30.8375 19.7Z" fill="#FFB506"/>
<path d="M24.3907 21.6731L21.8687 18.2506C21.8018 18.1771 21.7195 18.1182 21.6272 18.0778C21.5349 18.0374 21.4348 18.0163 21.3334 18.0161C21.2656 18.0159 21.1982 18.0249 21.133 18.0427C20.2674 18.2904 19.7214 19.6426 19.7015 19.7001C19.5485 20.0098 19.518 20.2619 19.6097 20.4462C19.6387 20.5035 19.6799 20.5544 19.7304 20.5955C19.781 20.6367 19.8399 20.6672 19.9034 20.6851L24.0328 22.0122C24.1299 22.0525 24.2333 22.077 24.3387 22.0845C24.3689 22.0883 24.3996 22.0833 24.4269 22.0702C24.4541 22.057 24.4767 22.0363 24.4917 22.0108C24.5589 21.9002 24.4182 21.7085 24.3907 21.6731Z" fill="#FFB506"/>
<path d="M25.0774 28.0374V23.8378C25.0774 23.6328 25.0621 23.5104 25.0025 23.4514C24.9905 23.4391 24.976 23.4293 24.96 23.4225C24.944 23.4156 24.9267 23.4119 24.9092 23.4116C24.7838 23.4116 24.6507 23.5871 24.6247 23.621L22.0614 27.0126C21.9936 27.1256 21.9605 27.255 21.9659 27.3855C21.9713 27.516 22.015 27.6423 22.092 27.7498C22.6089 28.4621 24.1124 28.5314 24.172 28.5328C24.2451 28.5418 24.3186 28.5467 24.3922 28.5476C24.4948 28.5563 24.5981 28.544 24.6954 28.5115C24.7926 28.4789 24.8817 28.4269 24.9566 28.3588C25.0392 28.2712 25.0826 28.1557 25.0774 28.0374Z" fill="#FFB506"/>
<path d="M28.485 27.0053L25.8452 23.6653C25.7137 23.484 25.6097 23.3999 25.521 23.3999C25.5034 23.3999 25.486 23.4034 25.4699 23.4102C25.4538 23.4171 25.4394 23.4271 25.4277 23.4397C25.3664 23.5343 25.339 23.6457 25.3497 23.7568L25.443 27.9549C25.46 28.0846 25.5149 28.2069 25.6013 28.3077C25.6877 28.4085 25.8019 28.4835 25.9308 28.5241C26.0508 28.5593 26.1756 28.5767 26.301 28.5757C27.1116 28.5757 28.043 27.9549 28.0782 27.9313C28.384 27.7573 28.5569 27.5656 28.589 27.3621C28.5986 27.2989 28.5944 27.2345 28.5765 27.173C28.5585 27.1115 28.5274 27.0543 28.485 27.0053Z" fill="#FFB506"/>
<path d="M30.9261 24.6795C30.8973 24.6227 30.8567 24.5722 30.8067 24.5313C30.7566 24.4905 30.6983 24.4601 30.6355 24.4421L26.506 23.115C26.4089 23.0747 26.3055 23.0503 26.2001 23.0427C26.1699 23.0389 26.1392 23.0439 26.112 23.0571C26.0847 23.0702 26.0622 23.0909 26.0472 23.1165C25.9875 23.2315 26.1267 23.4232 26.1542 23.4586L28.6778 26.8811C28.7445 26.9543 28.8266 27.013 28.9186 27.0534C29.0106 27.0939 29.1105 27.115 29.2116 27.1155C29.2799 27.116 29.348 27.1065 29.4135 27.0875C30.2776 26.8413 30.8236 25.4891 30.845 25.4345C30.9888 25.1175 31.0178 24.8609 30.9261 24.6795Z" fill="#FFB506"/>
<path d="M31.4812 21.7908C31.3619 21.1744 31.0499 21.0815 30.8694 21.0815C30.8172 21.0819 30.7655 21.0909 30.7164 21.1081L26.5625 22.3733C26.3086 22.4396 26.1893 22.5207 26.1863 22.6166C26.1863 22.7552 26.4356 22.8392 26.4845 22.854L30.614 24.19C30.6643 24.2 30.7155 24.2054 30.7669 24.2062C30.8754 24.2068 30.9825 24.1831 31.0799 24.137C31.1773 24.091 31.2623 24.0238 31.3282 23.9408C31.8803 23.2492 31.4964 21.8469 31.4812 21.7908Z" fill="#FFB506"/>
<path d="M24.4979 23.1091C24.4829 23.0836 24.4603 23.0629 24.4331 23.0497C24.4058 23.0366 24.3751 23.0316 24.3449 23.0354C24.2396 23.0425 24.1362 23.0664 24.039 23.1062L19.9096 24.4407C19.844 24.4574 19.7828 24.4874 19.7301 24.5285C19.6774 24.5697 19.6343 24.6212 19.6037 24.6796C19.5119 24.8654 19.5425 25.122 19.6939 25.4169C19.7153 25.4744 20.2614 26.8266 21.127 27.0728C21.192 27.0918 21.2595 27.1013 21.3274 27.1008C21.4297 27.1 21.5308 27.0783 21.6239 27.0372C21.7169 26.996 21.7999 26.9363 21.8673 26.862L24.3847 23.4453C24.4183 23.4159 24.559 23.2242 24.4979 23.1091Z" fill="#FFB506"/>
<path d="M23.978 22.2673L19.8272 21.0051C19.7742 20.9868 19.7183 20.9773 19.662 20.9771C19.4876 20.9771 19.1772 21.0699 19.0502 21.6819C19.0334 21.7424 18.6495 23.1447 19.2032 23.8348C19.2689 23.9181 19.3538 23.9855 19.4512 24.0315C19.5487 24.0776 19.6559 24.1011 19.7645 24.1002C19.8199 24.1001 19.8753 24.0947 19.9296 24.084L24.0499 22.7569C24.0989 22.7407 24.3558 22.6581 24.3558 22.5195C24.3512 22.4133 24.2319 22.3351 23.978 22.2673Z" fill="#FFB506"/>
</g>
<defs>
<clipPath id="clip0_430_629">
<rect width="25" height="19" fill="white" transform="translate(8 11)"/>
</clipPath>
</defs>
</svg>
